<svg width="300" height="300" viewBox="0 0 300 300" fill="none" xmlns="http://www.w3.org/2000/svg">
<path d="M149.49 270.738C227.753 270.738 291.198 262.505 291.198 252.348C291.198 242.191 227.753 233.958 149.49 233.958C71.2268 233.958 7.78198 242.191 7.78198 252.348C7.78198 262.505 71.2268 270.738 149.49 270.738Z" fill="#F5F5F5"/>
<path d="M263.928 203.856L121.824 182.898C117.57 182.268 114.624 178.308 115.254 174.054L130.446 71.0579C131.076 66.8039 135.036 63.8579 139.29 64.4879L281.394 85.4459C285.648 86.0759 288.594 90.0359 287.964 94.2899L272.772 197.286C272.142 201.54 268.182 204.486 263.928 203.856Z" fill="#F5F5F5"/>
<path d="M256.962 193.95L114.444 211.848C110.172 212.382 106.278 209.358 105.744 205.086L92.7719 101.784C92.2379 97.512 95.2619 93.618 99.5339 93.084L242.052 75.186C246.324 74.652 250.218 77.676 250.752 81.948L263.724 185.25C264.258 189.522 261.234 193.416 256.962 193.95Z" fill="#F5F5F5"/>
<path d="M117.414 203.832C116.766 203.916 116.172 203.454 116.094 202.806L104.094 107.256C104.01 106.608 104.472 106.014 105.12 105.936C105.768 105.852 106.362 106.314 106.44 106.962L118.44 202.512C118.524 203.16 118.062 203.754 117.414 203.832Z" fill="#D6D6D6"/>
<path d="M132.204 201.648C131.556 201.732 130.962 201.27 130.884 200.622L118.884 105.072C118.8 104.424 119.262 103.83 119.91 103.752C120.558 103.668 121.152 104.13 121.23 104.778L133.23 200.328C133.314 200.976 132.852 201.57 132.204 201.648Z" fill="#D6D6D6"/>
<path d="M146.994 199.464C146.346 199.548 145.752 199.086 145.674 198.438L133.674 102.888C133.59 102.24 134.052 101.646 134.7 101.568C135.348 101.484 135.942 101.946 136.02 102.594L148.02 198.144C148.104 198.792 147.642 199.386 146.994 199.464Z" fill="#D6D6D6"/>
<path d="M161.784 197.274C161.136 197.358 160.542 196.896 160.464 196.248L148.464 100.698C148.38 100.05 148.842 99.4559 149.49 99.3779C150.138 99.2939 150.732 99.7559 150.81 100.404L162.81 195.954C162.894 196.602 162.432 197.196 161.784 197.274Z" fill="#D6D6D6"/>
<path d="M176.58 195.09C175.932 195.174 175.338 194.712 175.26 194.064L163.26 98.5139C163.176 97.8659 163.638 97.2719 164.286 97.1939C164.934 97.1099 165.528 97.5719 165.606 98.2199L177.606 193.77C177.69 194.418 177.228 195.012 176.58 195.09Z" fill="#D6D6D6"/>
<path d="M191.37 192.906C190.722 192.99 190.128 192.528 190.05 191.88L178.05 96.3299C177.966 95.6819 178.428 95.0879 179.076 95.0099C179.724 94.9259 180.318 95.3879 180.396 96.0359L192.396 191.586C192.48 192.234 192.018 192.828 191.37 192.906Z" fill="#D6D6D6"/>
<path d="M206.16 190.722C205.512 190.806 204.918 190.344 204.84 189.696L192.84 94.1459C192.756 93.4979 193.218 92.9039 193.866 92.8259C194.514 92.7419 195.108 93.2039 195.186 93.8519L207.186 189.402C207.27 190.05 206.808 190.644 206.16 190.722Z" fill="#D6D6D6"/>
<path d="M220.95 188.532C220.302 188.616 219.708 188.154 219.63 187.506L207.63 91.956C207.546 91.308 208.008 90.714 208.656 90.636C209.304 90.552 209.898 91.014 209.976 91.662L221.976 187.212C222.06 187.86 221.598 188.454 220.95 188.532Z" fill="#D6D6D6"/>
<path d="M235.746 186.348C235.098 186.432 234.504 185.97 234.426 185.322L222.426 89.7719C222.342 89.1239 222.804 88.5299 223.452 88.4519C224.1 88.3679 224.694 88.8299 224.772 89.4779L236.772 185.028C236.856 185.676 236.394 186.27 235.746 186.348Z" fill="#D6D6D6"/>
<path d="M250.536 184.164C249.888 184.248 249.294 183.786 249.216 183.138L237.216 87.5879C237.132 86.9399 237.594 86.3459 238.242 86.2679C238.89 86.1839 239.484 86.6459 239.562 87.2939L251.562 182.844C251.646 183.492 251.184 184.086 250.536 184.164Z" fill="#D6D6D6"/>
<path d="M127.548 89.568L240.204 74.862C245.874 74.124 251.046 78.18 251.682 83.862L257.064 132.192" stroke="#262626" stroke-width="0.41" stroke-linecap="round" stroke-linejoin="round"/>
<path d="M276.288 249.12L133.014 241.674C128.67 241.446 125.328 237.744 125.556 233.4L131.088 126.924C131.316 122.58 135.018 119.238 139.362 119.466L282.636 126.912C286.98 127.14 290.322 130.842 290.094 135.186L284.562 241.668C284.334 246.012 280.632 249.354 276.288 249.126V249.12Z" fill="#F5F5F5"/>
<path d="M276.288 249.12L133.014 241.674C128.67 241.446 125.328 237.744 125.556 233.4L131.088 126.924C131.316 122.58 135.018 119.238 139.362 119.466L282.636 126.912C286.98 127.14 290.322 130.842 290.094 135.186L284.562 241.668C284.334 246.012 280.632 249.354 276.288 249.126V249.12Z" stroke="#262626" stroke-width="0.41" stroke-linecap="round" stroke-linejoin="round"/>
<path d="M156.594 132.198L140.784 111.75C139.08 109.548 136.464 108.222 133.812 108.222H92.976C88.59 108.222 85.41 111.78 85.866 116.16L87.546 132.192L87.606 132.792L99.222 243.684C99.684 248.07 103.608 251.622 107.994 251.622H270.414C274.8 251.622 277.98 248.064 277.524 243.684L266.676 140.13C266.214 135.744 262.29 132.192 257.904 132.192H156.582L156.594 132.198Z" fill="#F8D267"/>
<path d="M176.862 206.604C175.962 203.178 175.506 200.418 175.476 198.33C175.452 196.242 175.968 194.322 177.018 192.582C177.618 191.538 178.368 190.638 179.274 189.882C180.18 189.126 180.984 188.328 181.698 187.488C182.406 186.648 182.94 185.7 183.306 184.656C183.672 183.612 183.636 182.244 183.192 180.564C182.448 177.72 181.14 175.728 179.274 174.594C177.408 173.46 175.404 172.896 173.256 172.896C170.178 172.896 168.282 173.754 167.568 175.464C166.854 177.18 166.734 179.484 167.202 182.388H155.964C155.22 179.544 155.004 176.958 155.328 174.636C155.646 172.314 156.45 170.34 157.74 168.714C159.024 167.088 160.764 165.84 162.942 164.97C165.12 164.1 167.664 163.662 170.574 163.662C176.844 163.662 182.13 164.94 186.432 167.496C190.728 170.052 193.632 174.204 195.138 179.952C195.624 181.812 195.864 183.438 195.852 184.83C195.84 186.222 195.6 187.488 195.144 188.622C194.688 189.756 194.034 190.812 193.188 191.802C192.342 192.792 191.358 193.806 190.242 194.85C189.222 195.84 188.43 196.752 187.866 197.592C187.302 198.432 186.936 199.32 186.774 200.25C186.612 201.18 186.606 202.152 186.756 203.166C186.906 204.18 187.146 205.332 187.482 206.61H176.85L176.862 206.604ZM180.918 223.416L177.93 212.004H189.69L192.678 223.416H180.918Z" fill="#FFFF00"/>
<path d="M87.552 132.198L87.618 132.798" stroke="#262626" stroke-width="0.47" stroke-linecap="round" stroke-linejoin="round"/>
<path d="M277.536 243.69L266.688 140.136C266.226 135.75 262.302 132.198 257.916 132.198H156.594L140.784 111.75C139.08 109.548 136.464 108.222 133.812 108.222H92.976" stroke="#262626" stroke-width="0.47" stroke-linecap="round" stroke-linejoin="round"/>
<path d="M76.7219 150.846V155.454C76.7219 155.454 84.2459 187.008 85.7099 191.226C87.1799 195.444 80.5739 236.076 80.5739 236.076H58.5599L61.3559 190.86L37.3859 233.1L17.7179 221.496C17.7179 221.496 36.8459 185.514 37.3859 179.016C37.9259 172.518 35.9999 142.59 35.9999 142.59L76.7219 150.852V150.846Z" fill="#3897E9"/>
<path d="M47.838 144.99C47.838 144.99 50.07 176.562 48.486 182.112C46.902 187.662 28.278 227.724 28.278 227.724" stroke="#262626" stroke-width="0.41" stroke-linecap="round" stroke-linejoin="round"/>
<path d="M61.3439 190.176C60.4199 205.476 59.4899 220.776 58.5659 236.076H68.2259L64.7639 182.106C64.5659 183.45 64.1399 185.274 63.1679 187.242C62.5859 188.43 61.9379 189.402 61.3379 190.176H61.3439Z" fill="#1775AF"/>
<path d="M57.7979 163.944L54.2399 161.346H55.9679C57.0479 161.346 57.8219 160.29 57.4919 159.258C57.4139 159.012 57.1799 158.844 56.9219 158.838C55.8179 158.82 54.8939 158.766 54.2099 158.718C52.5839 158.604 51.7559 158.544 51.0539 158.292C49.8959 157.878 49.7399 157.464 48.5519 157.056C47.8379 156.804 47.1779 156.708 46.6379 156.672C44.0039 154.416 41.8619 151.896 40.3259 149.13L37.0379 161.208C36.9539 161.19 37.1459 162.318 37.0919 162.36C38.9219 163.248 40.4279 163.71 42.0599 164.268C42.2279 164.904 42.4919 165.624 42.9359 166.344C43.6259 167.466 44.3939 168.054 45.8459 169.164C46.1339 169.386 45.9119 169.2 49.5119 171.18C49.8479 171.366 50.4839 171.714 50.9399 171.462C51.3179 171.252 51.4559 170.688 51.4679 170.634C51.5279 170.37 51.5039 170.142 51.4799 170.004C51.5639 170.07 51.6899 170.166 51.8579 170.244C52.3139 170.454 53.1539 170.604 53.6579 170.106C54.1019 169.668 54.0239 168.984 54.0059 168.822C53.9759 168.54 53.8799 168.318 53.8079 168.18L54.4499 168.438C54.9059 168.618 55.4279 168.546 55.8119 168.252C56.5439 167.688 56.5319 166.584 55.7939 166.032L55.5719 165.87L56.7959 166.152C57.2639 166.26 57.7559 166.086 58.0499 165.702C58.4759 165.15 58.3619 164.358 57.8039 163.95L57.7979 163.944Z" fill="#1775AF"/>
<path d="M75.408 98.634C75.408 98.634 92.352 132.108 94.254 135.96C96.162 139.812 110.076 155.418 110.076 155.418L101.286 161.202C97.536 158.028 93.78 154.854 90.03 151.68C87.57 149.478 85.11 146.946 82.758 144.042C69.336 127.476 67.128 108.234 66.876 97.572L75.408 98.634Z" fill="#F7A99C"/>
<path d="M88.818 125.154C88.506 127.422 87.786 130.716 85.974 134.31C84.468 137.298 82.206 139.968 80.796 141.492C80.55 141.264 79.728 140.442 79.542 139.092C79.386 137.928 79.788 137.04 79.956 136.716L87.006 121.068L88.818 125.154Z" fill="#FF7769"/>
<path d="M59.3699 75.2939C58.2479 76.4579 57.1979 77.1119 56.4299 77.5019C54.3479 78.5579 53.0939 80.1719 52.5959 82.4999C52.1939 84.3839 52.3379 86.3759 52.9679 88.1999C53.2859 89.1239 53.7299 90.0119 54.2819 90.8159C54.8279 91.6019 55.3799 92.2199 55.1039 93.2639C54.7319 94.6679 52.8419 95.1059 51.8879 96.0359C50.7119 97.1819 50.0819 98.85 50.0219 100.476C49.9859 101.472 50.1419 102.492 50.6399 103.356C51.2579 104.424 52.3139 105.102 53.3519 105.708C54.4679 106.362 55.5539 107.07 56.6999 107.664" stroke="#262626" stroke-width="0.41" stroke-linecap="round" stroke-linejoin="round"/>
<path d="M77.9399 76.1699C79.0259 77.2679 80.1779 78.4919 80.3279 80.0339C80.3879 80.6639 80.2739 81.2999 80.1119 81.9059C79.8119 83.0219 79.3559 84.0839 79.0739 85.2059C78.8579 86.0699 78.7499 86.9879 78.9599 87.8519C79.1519 88.6379 79.5899 89.3399 80.1059 89.9639C81.5639 91.7459 83.2379 92.9819 83.5739 95.4059C83.7599 96.7259 83.6039 98.0699 83.3639 99.3839C83.2139 100.2 83.0219 101.034 82.5179 101.694C81.5879 102.906 79.8419 103.32 78.4259 103.608" stroke="#262626" stroke-width="0.41" stroke-linecap="round" stroke-linejoin="round"/>
<path d="M67.236 73.518C66.102 73.512 65.118 73.542 64.758 73.578C60.048 74.01 55.638 76.662 54.246 81.372C53.61 83.532 53.724 85.356 53.934 86.37C54.468 88.98 56.22 89.958 55.776 91.866C55.686 92.256 55.566 92.418 54.672 93.708C52.626 96.654 51.6 98.13 51.51 98.388C50.622 100.764 51.54 103.626 52.932 105.342C53.808 106.416 55.044 107.346 56.724 107.928C59.664 108.948 68.568 112.5 76.686 107.652C78.696 106.452 82.002 104.478 82.878 100.776C83.958 96.21 80.718 91.704 80.22 91.008C79.026 89.352 78.768 89.742 78.108 88.578C76.74 86.154 77.49 83.526 78.192 81.03C78.876 78.6 78.618 77.268 78.192 76.518C77.064 74.544 74.01 74.118 71.544 73.776C69.876 73.542 67.95 73.536 67.248 73.53L67.236 73.518Z" fill="#262626"/>
<path d="M69.486 98.058C75.486 100.188 79.02 103.41 80.79 105.306C83.886 108.63 85.776 112.44 87.186 115.278C88.116 117.15 88.794 118.776 89.25 119.958L79.368 141.492L69.486 98.058Z" fill="#FDB6D6"/>
<path d="M61.086 97.938H69.486C69.486 97.938 80.652 106.128 83.094 113.286C85.536 120.438 76.692 152.37 76.692 152.37C70.65 152.532 63.594 152.286 55.8 151.2C45.072 149.706 35.988 147.042 28.854 144.378C30.408 137.052 32.04 130.902 33.396 126.216C37.212 113.01 39.54 108.912 42.888 105.582C45.99 102.486 49.086 100.932 50.028 100.476C54.546 98.304 58.698 97.956 61.086 97.938Z" fill="#FDB6D6"/>
<path d="M76.6799 107.646C76.6799 107.646 77.0759 124.602 75.5159 130.746C73.9559 136.89 69.9779 152.37 69.9779 152.37H76.6859C76.6859 152.37 80.3339 138.678 80.6039 135.24C80.8799 131.802 81.2579 125.886 80.7899 123.342C80.3279 120.798 79.3799 115.392 78.7499 113.178C78.1259 110.964 76.6739 107.652 76.6739 107.652L76.6799 107.646Z" fill="#FF97CB"/>
<path d="M47.8379 128.604C46.8959 129.144 43.7219 131.112 42.3659 135.102C40.2299 141.378 44.8439 148.926 45.1079 149.238L30.8099 145.692C30.8099 145.692 31.1759 135.51 32.3219 131.748C33.4679 127.986 39.0179 121.95 39.0179 121.95L47.8379 128.598V128.604Z" fill="#FF97CB"/>
<path d="M65.3039 102.126C62.9819 102.132 61.0979 100.26 61.0859 97.938L61.0499 88.896L69.4559 88.866L69.4919 97.908C69.4979 100.23 67.6259 102.114 65.3039 102.126Z" fill="#F7A99C"/>
<path d="M69.4799 95.3759L64.0079 92.5619C64.0619 93.0359 64.3739 95.2559 66.3239 96.7859C67.5719 97.7639 68.8799 97.9859 69.4859 98.0519V95.3699L69.4799 95.3759Z" fill="#FF7769"/>
<path d="M60.8459 86.0939C60.8219 85.9559 60.4619 85.7519 60.3479 85.6799C60.1619 85.5599 59.9579 85.4639 59.7479 85.3979C59.3399 85.2659 58.8899 85.2359 58.4639 85.3319C57.6239 85.5239 56.8859 86.2259 56.7419 87.0899C56.6579 87.5879 56.7779 88.1099 56.9939 88.5659C57.3179 89.2559 57.8639 89.8379 58.5239 90.2159C59.0699 90.5339 59.6939 90.7079 60.3239 90.7499C60.4499 90.7559 61.7399 90.7259 61.7339 90.6779C61.4399 89.1479 61.1399 87.6179 60.8459 86.0939Z" fill="#F7A99C"/>
<path d="M59.694 86.1839C59.796 86.8559 60.384 90.4139 63.594 92.9339C64.182 93.3959 68.112 96.4739 71.706 94.9739C76.326 93.0419 75.822 85.4579 75.786 85.0499C75.678 83.6639 75.354 79.5719 71.964 77.3879C69.198 75.6059 66.204 76.2599 65.778 76.3619C65.328 76.4699 62.478 77.1839 60.732 79.9799C59.148 82.5179 59.526 85.0799 59.688 86.1839H59.694Z" fill="#F7A99C"/>
<path d="M73.1639 85.0499C73.2359 85.6439 73.6919 86.0699 74.1839 86.0099C74.6759 85.9499 75.0059 85.4159 74.9339 84.8279C74.8619 84.2339 74.4059 83.8079 73.9139 83.8679C73.4279 83.9279 73.0919 84.4619 73.1639 85.0499Z" fill="#262626"/>
<path d="M67.8299 85.716C67.9019 86.31 68.3579 86.736 68.8499 86.676C69.3359 86.616 69.6719 86.082 69.5999 85.494C69.5279 84.9 69.0719 84.474 68.5799 84.534C68.0939 84.594 67.7579 85.128 67.8299 85.716Z" fill="#262626"/>
<path d="M71.556 85.9319L72.372 87.0359C72.522 87.2399 72.468 87.5279 72.252 87.6599L71.502 88.1159" stroke="#262626" stroke-width="0.73" stroke-linecap="round" stroke-linejoin="round"/>
<path d="M66.042 88.5059C66.126 89.1719 66.732 89.6399 67.398 89.5559C68.064 89.4719 68.532 88.8659 68.448 88.1999C68.364 87.5339 67.758 87.0659 67.092 87.1499C66.426 87.2339 65.958 87.8399 66.042 88.5059Z" fill="#FF7769"/>
<path d="M60.2819 89.1359C60.2819 89.0039 60.2999 88.0979 59.5739 87.4499C59.0039 86.9399 58.3499 86.9039 58.1699 86.9039" stroke="#262626" stroke-width="0.73" stroke-linecap="round" stroke-linejoin="round"/>
<path d="M59.6459 87.624C59.6039 87.618 59.1179 87.552 58.7819 87.918C58.5059 88.218 58.5299 88.59 58.5359 88.656" stroke="#262626" stroke-width="0.73" stroke-linecap="round" stroke-linejoin="round"/>
<path d="M59.5859 85.3559C59.5859 85.3559 60.1859 85.4099 60.6359 85.8539C61.0859 86.2979 61.2479 87.0659 61.2479 87.0659C62.3999 86.9279 65.0339 86.4419 67.4219 84.3659C68.7179 83.2439 69.5099 82.0259 69.9719 81.1499C70.4099 81.5399 71.1539 82.1279 72.2039 82.5839C73.5779 83.1779 75.2879 83.4599 75.5159 82.9979C75.5579 82.9139 75.5159 82.6679 75.4199 82.1699C75.3839 81.9899 75.3479 81.7259 75.2639 81.4739C75.0959 80.9759 74.8739 80.5019 74.6099 80.0459C74.0819 79.1399 73.3799 78.3359 72.5519 77.6879C72.0119 77.2679 71.4239 76.9199 70.7999 76.6499C68.8079 75.8039 66.0419 75.8039 63.6599 77.0699C63.6599 77.0699 61.0019 78.4859 59.8319 81.2639C59.4299 82.2179 59.3279 83.1719 59.3039 83.5019C59.2559 84.1559 59.3279 84.5819 59.4299 84.9119C59.4839 85.0979 59.5499 85.2479 59.5979 85.3499L59.5859 85.3559Z" fill="#262626"/>
<path d="M75.156 86.592C75.384 86.562 75.606 86.604 75.804 86.694C75.78 87.348 75.72 88.134 75.576 88.974C75.54 88.98 75.498 88.998 75.462 88.998C74.796 89.082 74.19 88.608 74.106 87.948C74.022 87.288 74.496 86.676 75.156 86.592Z" fill="#FF7769"/>
<path d="M71.9819 89.7599L69.7799 90.6599" stroke="#262626" stroke-width="0.73" stroke-linecap="round" stroke-linejoin="round"/>
<path d="M76.9799 155.688L41.1839 165.21C38.4659 165.93 36.8519 168.72 37.5719 171.438C38.2919 174.156 41.0819 175.77 43.7999 175.05L79.2539 165.624L76.9859 155.694L76.9799 155.688Z" fill="#1775AF"/>
<path d="M37.5719 170.238C36.8519 167.52 38.4659 164.73 41.1839 164.01L111.396 145.338L114.012 155.178L43.7999 173.85C41.0819 174.57 38.2919 172.956 37.5719 170.238Z" fill="#F8D267"/>
<path d="M57.7979 163.944L54.2399 161.346H55.9679C57.0479 161.346 57.8219 160.29 57.4919 159.258C57.4139 159.012 57.1799 158.844 56.9219 158.838C55.8179 158.82 54.8939 158.766 54.2099 158.718C52.5839 158.604 51.7559 158.544 51.0539 158.292C49.8959 157.878 49.7399 157.464 48.5519 157.056C47.8379 156.804 47.1779 156.708 46.6379 156.672C46.2899 156.372 45.9539 156.072 45.6239 155.766L41.1599 163.962C41.4539 164.064 41.7539 164.16 42.0599 164.268C42.2279 164.904 42.4919 165.624 42.9359 166.344C43.6259 167.466 44.3939 168.054 45.8459 169.164C46.1339 169.386 45.9119 169.2 49.5119 171.18C49.8479 171.366 50.4839 171.714 50.9399 171.462C51.3179 171.252 51.4559 170.688 51.4679 170.634C51.5279 170.37 51.5039 170.142 51.4799 170.004C51.5639 170.07 51.6899 170.166 51.8579 170.244C52.3139 170.454 53.1539 170.604 53.6579 170.106C54.1019 169.668 54.0239 168.984 54.0059 168.822C53.9759 168.54 53.8799 168.318 53.8079 168.18L54.4499 168.438C54.9059 168.618 55.4279 168.546 55.8119 168.252C56.5439 167.688 56.5319 166.584 55.7939 166.032L55.5719 165.87L56.7959 166.152C57.2639 166.26 57.7559 166.086 58.0499 165.702C58.4759 165.15 58.3619 164.358 57.8039 163.95L57.7979 163.944Z" fill="#3041BF"/>
<path d="M48.384 103.608C32.664 110.34 21.954 122.826 21.966 135.57C21.972 143.472 26.106 150.498 27.468 152.814C32.742 161.778 43.158 162.882 46.896 164.952L51.15 158.868C41.952 152.988 36.294 144.774 37.926 134.472C40.014 121.32 51.684 115.386 52.8 114.846L48.384 103.608Z" fill="#F7A99C"/>
<path d="M31.1279 115.272L42.7859 123.228L40.6739 126.468C38.8679 125.91 36.3479 124.908 33.6959 123.06C31.3319 121.41 29.6519 119.64 28.5299 118.26C29.3939 117.264 30.2579 116.268 31.1279 115.272Z" fill="#FF7769"/>
<path d="M28.8479 114.294L47.8319 128.604C52.4339 119.142 56.0039 112.212 58.5659 107.37C59.6819 105.258 62.5139 99.918 60.8339 98.22C60.4019 97.788 59.0999 97.698 56.5019 97.53C54.4319 97.398 53.2019 97.32 51.5519 97.53C51.5519 97.53 49.5959 97.776 47.4719 98.514C44.2619 99.636 36.9899 105.246 28.8539 114.288L28.8479 114.294Z" fill="#FDB6D6"/>
<path d="M62.97 236.076V250.674H86.376L85.764 246.474C85.764 246.474 78.426 242.358 77.28 241.416C76.14 240.48 74.916 238.644 74.67 238.074C74.424 237.504 74.67 236.076 74.67 236.076H62.964H62.97Z" fill="#F7A99C"/>
<path d="M61.788 241.584C62.076 241.506 62.508 241.434 62.97 241.566C64.17 241.908 64.482 243.294 64.998 244.032L78.426 244.182C78.396 243.504 78.372 242.82 78.342 242.142C79.038 241.914 79.74 241.686 80.436 241.464C81.9 243.096 83.322 244.044 84.402 244.62C86.052 245.502 88.2 246.198 89.07 247.686C89.496 248.406 89.514 249.144 89.52 249.276C89.526 249.654 89.538 250.188 89.154 250.536C88.872 250.8 88.506 250.836 88.338 250.842C79.674 250.788 71.004 250.734 62.34 250.68C62.034 250.68 61.788 250.434 61.788 250.128V241.584Z" fill="#F8D267"/>
<path d="M61.788 250.17H89.4V251.316C89.4 251.886 88.938 252.348 88.368 252.348H62.82C62.25 252.348 61.788 251.886 61.788 251.316V250.17Z" fill="#5D1113"/>
<path d="M62.97 236.076H74.676L74.574 237.534H62.97V236.076Z" fill="#FF7769"/>
<path d="M21.654 223.626L14.094 236.118L34.122 248.238L35.772 244.326C35.772 244.326 31.626 237 31.134 235.608C30.642 234.216 30.546 232.008 30.63 231.396C30.714 230.778 31.662 229.686 31.662 229.686L21.648 223.626H21.654Z" fill="#F7A99C"/>
<path d="M17.7959 227.724C18.0839 227.802 18.4859 227.964 18.8159 228.318C19.6619 229.23 19.2179 230.58 19.2719 231.48L30.6839 238.56C31.0139 237.966 31.3379 237.366 31.6679 236.772C32.3819 236.94 33.0959 237.108 33.8159 237.276C34.2239 239.43 34.9499 240.978 35.5739 242.028C36.5339 243.636 38.0039 245.34 37.9799 247.068C37.9679 247.908 37.6079 248.544 37.5359 248.664C37.3439 248.994 37.0799 249.45 36.5699 249.552C36.1919 249.63 35.8619 249.474 35.7119 249.39C28.3259 244.86 20.9399 240.324 13.5539 235.794C13.2959 235.638 13.2119 235.296 13.3679 235.038L17.7899 227.73L17.7959 227.724Z" fill="#F8D267"/>
<path d="M13.3344 235.06L36.9577 249.355L36.3643 250.336C36.0692 250.823 35.4348 250.98 34.9471 250.684L13.0897 237.457C12.602 237.162 12.4459 236.528 12.741 236.04L13.3344 235.06Z" fill="#5D1113"/>
<path d="M21.6539 223.626L31.6679 229.68L30.8279 230.88L20.9039 224.874L21.6539 223.626Z" fill="#FF7769"/>
<path d="M56.7179 107.922C56.4839 110.616 55.8299 114.54 53.9579 118.914C52.0619 123.348 49.6319 126.564 47.8319 128.604C41.5019 123.834 35.1719 119.064 28.8479 114.294" stroke="#262626" stroke-width="0.41" stroke-linecap="round" stroke-linejoin="round"/>
<path d="M76.62 107.082C77.592 109.398 78.492 111.996 79.218 114.858C81.858 125.292 80.922 134.52 79.632 140.742" stroke="#262626" stroke-width="0.41" stroke-linecap="round" stroke-linejoin="round"/>
<path d="M51.1499 99.9659C51.1499 99.9659 46.4879 100.29 43.3199 102.834C40.1579 105.378 35.8199 109.782 35.8199 109.782" stroke="white" stroke-width="0.41" stroke-linecap="round" stroke-linejoin="round"/>
<path d="M42.054 124.242C40.302 126.768 39.348 129.126 38.814 130.776C37.98 133.368 37.782 135.45 37.734 136.098C37.602 137.736 37.416 140.088 38.22 142.788C38.556 143.922 39.384 146.178 39.39 146.178" stroke="#262626" stroke-width="0.41" stroke-linecap="round" stroke-linejoin="round"/>
<path d="M41.772 161.574C41.826 162.402 42.036 163.776 42.894 165.174C43.584 166.296 44.352 166.884 45.804 167.994C46.092 168.216 45.87 168.03 49.47 170.01C49.806 170.196 50.442 170.544 50.898 170.292C51.276 170.082 51.414 169.518 51.426 169.464C51.486 169.2 51.462 168.972 51.438 168.834C51.522 168.9 51.648 168.996 51.816 169.074C52.272 169.284 53.112 169.434 53.616 168.936C54.06 168.498 53.982 167.814 53.964 167.652C53.934 167.37 53.838 167.148 53.766 167.01L54.408 167.268C54.864 167.448 55.386 167.376 55.77 167.082C56.502 166.518 56.49 165.414 55.752 164.862L55.53 164.7L56.754 164.982C57.222 165.09 57.714 164.916 58.008 164.532C58.434 163.98 58.32 163.188 57.762 162.78L54.204 160.182H55.932C57.012 160.182 57.786 159.126 57.456 158.094C57.378 157.848 57.144 157.68 56.886 157.674C55.782 157.656 54.858 157.602 54.174 157.554C52.548 157.44 51.72 157.38 51.018 157.128C49.86 156.714 49.704 156.3 48.516 155.892C47.52 155.544 46.626 155.484 46.026 155.496L41.772 161.58V161.574Z" fill="#F7A99C"/>
<path d="M51.438 168.834C50.838 168.132 50.064 167.346 49.104 166.56C48.282 165.894 47.496 165.366 46.788 164.952" stroke="#262626" stroke-width="0.41" stroke-linecap="round" stroke-linejoin="round"/>
<path d="M53.766 167.01C53.166 166.302 52.404 165.504 51.444 164.706C50.382 163.824 49.356 163.17 48.486 162.69" stroke="#262626" stroke-width="0.41" stroke-linecap="round" stroke-linejoin="round"/>
<path d="M55.5299 164.694C54.7619 163.932 53.7779 163.074 52.5479 162.264C51.7439 161.73 50.9759 161.304 50.2679 160.968" stroke="#262626" stroke-width="0.41" stroke-linecap="round" stroke-linejoin="round"/>
<path d="M48.486 213.546L63 187.17C64.26 184.878 64.866 182.286 64.752 179.676L64.26 168.408" stroke="#262626" stroke-width="0.41" stroke-linecap="round" stroke-linejoin="round"/>
<path d="M101.028 161.364C100.23 161.826 99.2159 161.55 98.7539 160.752L96.2339 156.39C95.7719 155.592 96.0479 154.578 96.8399 154.116C97.6379 153.654 98.6519 153.93 99.1139 154.728L101.634 159.09C102.096 159.888 101.82 160.902 101.028 161.364Z" fill="#F7A99C"/>
<path d="M103.59 160.524C102.792 160.986 101.778 160.71 101.316 159.918L98.226 154.56C97.764 153.762 98.04 152.748 98.832 152.286C99.63 151.824 100.644 152.1 101.106 152.898L104.196 158.256C104.658 159.054 104.382 160.068 103.59 160.53V160.524Z" fill="#F7A99C"/>
<path d="M106.11 159.132C105.312 159.594 104.298 159.318 103.836 158.52L100.59 152.898C100.128 152.1 100.404 151.086 101.196 150.624C101.994 150.162 103.008 150.438 103.47 151.236L106.716 156.858C107.178 157.656 106.902 158.67 106.11 159.132Z" fill="#F7A99C"/>
<path d="M107.724 158.232C106.854 158.532 105.906 158.07 105.606 157.2L103.494 151.068C103.194 150.198 103.656 149.25 104.526 148.95C105.396 148.65 106.344 149.112 106.644 149.982L108.756 156.114C109.056 156.984 108.594 157.932 107.724 158.232Z" fill="#F7A99C"/>
<path d="M98.652 152.412C98.268 152.808 98.136 153.168 98.076 153.384C97.806 154.404 98.61 155.628 100.224 158.034C100.59 158.58 101.136 159.36 101.136 159.36" stroke="#262626" stroke-width="0.41" stroke-linecap="round" stroke-linejoin="round"/>
<path d="M101.202 150.63C100.932 150.894 100.62 151.284 100.506 151.818C100.362 152.508 100.65 153 102.216 155.718C102.738 156.618 103.464 157.878 103.464 157.878" stroke="#262626" stroke-width="0.41" stroke-linecap="round" stroke-linejoin="round"/>
<path d="M104.07 149.274C103.896 149.442 103.626 149.742 103.536 150.174C103.452 150.594 103.566 150.936 103.62 151.092C103.89 151.89 104.49 153.708 105.324 156.114" stroke="#262626" stroke-width="0.41" stroke-linecap="round" stroke-linejoin="round"/>
<path opacity="0.5" d="M157.946 169.295C175.837 162.183 184.574 141.914 177.462 124.023C170.35 106.132 150.081 97.3946 132.19 104.507C114.299 111.619 105.561 131.888 112.674 149.779C119.786 167.67 140.055 176.407 157.946 169.295Z" fill="#CDEBF5"/>
<path d="M145.074 97.944C123.564 97.944 106.128 115.38 106.128 136.89C106.128 158.4 123.564 175.836 145.074 175.836C166.584 175.836 184.02 158.4 184.02 136.89C184.02 115.38 166.584 97.944 145.074 97.944ZM145.074 169.512C127.056 169.512 112.452 154.908 112.452 136.89C112.452 118.872 127.056 104.268 145.074 104.268C163.092 104.268 177.696 118.872 177.696 136.89C177.696 154.908 163.092 169.512 145.074 169.512Z" fill="#F8D267"/>
<path d="M151.956 159.894C151.542 159.528 151.272 159 151.236 158.406C151.164 157.206 152.076 156.18 153.27 156.108C155.448 155.976 157.596 155.37 159.486 154.356C161.598 153.222 162.978 151.818 163.614 151.086C164.364 150.216 165.93 148.398 166.5 145.704C167.292 141.954 165.642 138.72 164.892 137.502C164.262 136.482 164.586 135.144 165.606 134.514C166.626 133.884 167.97 134.208 168.594 135.228C169.86 137.292 171.822 141.51 170.748 146.598C169.95 150.384 167.814 152.862 166.902 153.918C165.888 155.094 164.13 156.792 161.538 158.184C159.096 159.492 156.33 160.272 153.534 160.446C152.934 160.482 152.37 160.272 151.956 159.9V159.894Z" fill="white"/>
<path d="M124.218 107.724C126.654 105.906 134.658 100.416 146.232 100.572C157.428 100.722 165.096 106.056 167.556 107.922" stroke="#262626" stroke-width="0.41" stroke-linecap="round" stroke-linejoin="round"/>
<path d="M85.92 57.864C86.292 55.95 86.73 54.438 87.252 53.322C87.768 52.212 88.542 51.246 89.574 50.436C90.174 49.944 90.822 49.548 91.518 49.248C92.214 48.948 92.868 48.606 93.48 48.24C94.092 47.868 94.632 47.424 95.1 46.908C95.568 46.392 95.898 45.666 96.078 44.724C96.384 43.134 96.162 41.94 95.406 41.136C94.65 40.332 93.672 39.816 92.472 39.588C90.75 39.258 89.472 39.51 88.638 40.338C87.804 41.172 87.15 42.384 86.676 43.974L80.394 42.762C80.7 41.172 81.24 39.78 82.008 38.58C82.776 37.38 83.73 36.42 84.864 35.694C85.998 34.968 87.282 34.494 88.722 34.266C90.162 34.038 91.692 34.08 93.318 34.392C96.822 35.07 99.45 36.318 101.208 38.136C102.96 39.954 103.53 42.474 102.912 45.684C102.714 46.722 102.432 47.61 102.072 48.348C101.712 49.086 101.256 49.734 100.716 50.28C100.17 50.832 99.54 51.324 98.814 51.756C98.088 52.188 97.284 52.62 96.39 53.058C95.568 53.472 94.896 53.874 94.368 54.258C93.84 54.642 93.408 55.074 93.084 55.548C92.754 56.022 92.508 56.538 92.334 57.096C92.16 57.654 92.004 58.284 91.866 58.998L85.926 57.852L85.92 57.864ZM83.916 67.224L85.146 60.846L91.716 62.112L90.486 68.49L83.916 67.224Z" fill="#F8D267"/>
<path d="M32.844 78.462C32.652 76.92 32.61 75.66 32.73 74.688C32.85 73.716 33.198 72.792 33.78 71.922C34.116 71.4 34.506 70.938 34.962 70.536C35.418 70.134 35.832 69.714 36.204 69.282C36.576 68.85 36.876 68.382 37.104 67.872C37.332 67.362 37.398 66.732 37.302 65.97C37.14 64.686 36.672 63.834 35.904 63.414C35.136 62.994 34.26 62.844 33.294 62.964C31.908 63.138 30.996 63.648 30.57 64.482C30.144 65.322 29.946 66.402 29.982 67.728L24.918 68.364C24.756 67.08 24.822 65.892 25.11 64.788C25.398 63.69 25.884 62.724 26.562 61.89C27.24 61.062 28.104 60.378 29.136 59.85C30.174 59.322 31.344 58.974 32.658 58.812C35.484 58.458 37.788 58.752 39.57 59.7C41.352 60.648 42.402 62.418 42.732 65.01C42.84 65.85 42.846 66.594 42.75 67.242C42.66 67.89 42.474 68.496 42.198 69.048C41.922 69.6 41.562 70.134 41.124 70.638C40.68 71.148 40.176 71.676 39.606 72.222C39.084 72.738 38.67 73.212 38.364 73.632C38.058 74.058 37.842 74.49 37.71 74.934C37.578 75.378 37.518 75.828 37.524 76.296C37.524 76.764 37.566 77.28 37.638 77.856L32.844 78.456V78.462ZM33.642 86.064L32.994 80.916L38.298 80.25L38.946 85.398L33.642 86.064Z" fill="#F8D267"/>
</svg>
