<svg width="30" height="30" viewBox="0 0 30 30" fill="none" xmlns="http://www.w3.org/2000/svg">
<path fill-rule="evenodd" clip-rule="evenodd" d="M2.5 14.9998C2.5 21.9034 8.09682 27.4998 15 27.4998C21.9032 27.4998 27.5 21.9034 27.5 14.9998C27.5 8.09699 21.9028 2.49976 15 2.49976C8.09723 2.49976 2.5 8.09699 2.5 14.9998ZM4.375 14.9998C4.375 9.13252 9.13277 4.37476 15 4.37476C20.8672 4.37476 25.625 9.13252 25.625 14.9998C25.625 20.8678 20.8677 25.6248 15 25.6248C9.13232 25.6248 4.375 20.8678 4.375 14.9998ZM12.4446 18.7794C12.1715 19.1458 12.2007 19.6667 12.5328 20.0002C12.8981 20.3671 13.4917 20.3684 13.8586 20.0031L18.2161 15.6643L18.3074 15.5591C18.5811 15.1915 18.5507 14.6688 18.2161 14.3357L13.8586 9.99691L13.7533 9.90637C13.3857 9.63484 12.8649 9.66622 12.5328 9.99977L12.4422 10.1051C12.1707 10.4727 12.2021 10.9935 12.5356 11.3256L16.225 15.0013L12.5356 18.6744L12.4446 18.7794Z" fill="white"/>
</svg>
