<svg width="30" height="30" viewBox="0 0 30 30" fill="none" xmlns="http://www.w3.org/2000/svg">
<path fill-rule="evenodd" clip-rule="evenodd" d="M27.5 15.0002C27.5 8.09664 21.9032 2.50024 15 2.50024C8.09682 2.50024 2.5 8.09664 2.5 15.0002C2.5 21.903 8.09723 27.5002 15 27.5002C21.9028 27.5002 27.5 21.903 27.5 15.0002ZM25.625 15.0002C25.625 20.8675 20.8672 25.6252 15 25.6252C9.13277 25.6252 4.375 20.8675 4.375 15.0002C4.375 9.13221 9.13232 4.37524 15 4.37524C20.8677 4.37524 25.625 9.13221 25.625 15.0002ZM17.5554 11.2206C17.8285 10.8542 17.7993 10.3333 17.4672 9.99976C17.1019 9.63286 16.5083 9.63158 16.1414 9.9969L11.7839 14.3357L11.6926 14.4409C11.4189 14.8085 11.4493 15.3312 11.7839 15.6643L16.1414 20.0031L16.2467 20.0936C16.6143 20.3652 17.1351 20.3338 17.4672 20.0002L17.5578 19.8949C17.8293 19.5273 17.7979 19.0065 17.4644 18.6744L13.775 14.9987L17.4644 11.3256L17.5554 11.2206Z" fill="white"/>
</svg>
