<svg width="20" height="20" viewBox="0 0 20 20" fill="none" xmlns="http://www.w3.org/2000/svg">
<path d="M10.0001 18.3333C8.8473 18.3333 7.76397 18.1144 6.75008 17.6766C5.73619 17.2388 4.85425 16.6452 4.10425 15.8958C3.35425 15.1463 2.76064 14.2644 2.32342 13.25C1.88619 12.2355 1.6673 11.1522 1.66675 9.99996C1.66619 8.84774 1.88508 7.7644 2.32342 6.74996C2.76175 5.73552 3.35536 4.85357 4.10425 4.10413C4.85314 3.35468 5.73508 2.76107 6.75008 2.32329C7.76508 1.88551 8.84842 1.66663 10.0001 1.66663C11.1517 1.66663 12.2351 1.88551 13.2501 2.32329C14.2651 2.76107 15.147 3.35468 15.8959 4.10413C16.6448 4.85357 17.2387 5.73552 17.6776 6.74996C18.1165 7.7644 18.3351 8.84774 18.3334 9.99996C18.3317 11.1522 18.1129 12.2355 17.6767 13.25C17.2406 14.2644 16.647 15.1463 15.8959 15.8958C15.1448 16.6452 14.2629 17.2391 13.2501 17.6775C12.2373 18.1158 11.154 18.3344 10.0001 18.3333ZM10.0001 16.6666C10.7501 16.6666 11.4723 16.5452 12.1667 16.3025C12.8612 16.0597 13.5001 15.7088 14.0834 15.25L4.75008 5.91663C4.29175 6.49996 3.94092 7.13885 3.69758 7.83329C3.45425 8.52774 3.33286 9.24996 3.33342 9.99996C3.33342 11.8611 3.97925 13.4375 5.27092 14.7291C6.56258 16.0208 8.13897 16.6666 10.0001 16.6666ZM15.2501 14.0833C15.7084 13.5 16.0592 12.8611 16.3026 12.1666C16.5459 11.4722 16.6673 10.75 16.6667 9.99996C16.6667 8.13885 16.0209 6.56246 14.7292 5.27079C13.4376 3.97913 11.8612 3.33329 10.0001 3.33329C9.25008 3.33329 8.52786 3.45468 7.83342 3.69746C7.13897 3.94024 6.50008 4.29107 5.91675 4.74996L15.2501 14.0833Z" fill="#EE7268"/>
</svg>
