<svg width="37" height="37" viewBox="0 0 37 37" fill="none" xmlns="http://www.w3.org/2000/svg">
<path fill-rule="evenodd" clip-rule="evenodd" d="M3.08325 18.5232C3.08325 10.4019 9.57367 3.08337 18.5308 3.08337C27.2874 3.08337 33.9166 10.2629 33.9166 18.4769C33.9166 28.0033 26.1466 33.9167 18.4999 33.9167C15.9716 33.9167 13.1658 33.2374 10.9149 31.9095C10.1287 31.4309 9.46575 31.0758 8.61784 31.3537L5.50367 32.2801C4.71742 32.5271 4.00825 31.9095 4.2395 31.0758L5.27242 27.6173C5.442 27.1386 5.41117 26.6291 5.1645 26.2277C3.83867 23.7882 3.08325 21.1171 3.08325 18.5232ZM16.4958 18.5232C16.4958 19.6194 17.3745 20.4995 18.4691 20.5149C19.5637 20.5149 20.4424 19.6194 20.4424 18.5386C20.4424 17.4424 19.5637 16.5623 18.4691 16.5623C17.3899 16.5469 16.4958 17.4424 16.4958 18.5232ZM23.6028 18.5386C23.6028 19.6194 24.4816 20.5149 25.5762 20.5149C26.6708 20.5149 27.5495 19.6194 27.5495 18.5386C27.5495 17.4424 26.6708 16.5623 25.5762 16.5623C24.4816 16.5623 23.6028 17.4424 23.6028 18.5386ZM11.362 20.5149C10.2828 20.5149 9.38867 19.6194 9.38867 18.5386C9.38867 17.4424 10.2674 16.5623 11.362 16.5623C12.4566 16.5623 13.3353 17.4424 13.3353 18.5386C13.3353 19.6194 12.4566 20.4995 11.362 20.5149Z" fill="url(#paint0_linear_132_3085)"/>
<defs>
<linearGradient id="paint0_linear_132_3085" x1="18.4999" y1="3.08337" x2="18.4999" y2="33.9167" gradientUnits="userSpaceOnUse">
<stop stop-color="#ED7368"/>
<stop offset="1" stop-color="#F3B55B"/>
</linearGradient>
</defs>
</svg>
