<svg width="9" height="10" viewBox="0 0 9 10" fill="none" xmlns="http://www.w3.org/2000/svg">
<path fill-rule="evenodd" clip-rule="evenodd" d="M0.663262 1.57839C0.903203 1.33845 1.29222 1.33845 1.53216 1.57839L4.16975 4.21598L6.80733 1.57839C7.04727 1.33845 7.43629 1.33845 7.67623 1.57839C7.91617 1.81833 7.91617 2.20735 7.67623 2.4473L5.03865 5.08488L7.67623 7.72246C7.91617 7.9624 7.91617 8.35142 7.67623 8.59136C7.43629 8.8313 7.04727 8.8313 6.80733 8.59136L4.16975 5.95378L1.53216 8.59136C1.29222 8.8313 0.903203 8.8313 0.663262 8.59136C0.423322 8.35142 0.423322 7.9624 0.663262 7.72246L3.30085 5.08488L0.663262 2.4473C0.423322 2.20735 0.423322 1.81833 0.663262 1.57839Z" fill="#121212" stroke="#121212" stroke-width="0.983051" stroke-linecap="round" stroke-linejoin="round"/>
</svg>
