<svg width="60" height="20" viewBox="0 0 60 20" fill="none" xmlns="http://www.w3.org/2000/svg">
<path d="M15.741 7.96167C15.741 14.6442 16.7029 17.6648 10.233 17.6648C3.76238 17.6648 4.74413 14.6442 4.74413 7.96167" stroke="#EE7268" stroke-width="1.5" stroke-linecap="round" stroke-linejoin="round"/>
<path d="M16.9709 5.39976H3.51221" stroke="#EE7268" stroke-width="1.5" stroke-linecap="round" stroke-linejoin="round"/>
<path d="M13.0958 5.39981C13.0958 5.39981 13.5362 2.26172 10.241 2.26172C6.94656 2.26172 7.38704 5.39981 7.38704 5.39981" stroke="#EE7268" stroke-width="1.5" stroke-linecap="round" stroke-linejoin="round"/>
<path d="M29.2988 14H27.5176L27.5293 13.0801H29.2988C29.9082 13.0801 30.416 12.9531 30.8223 12.6992C31.2285 12.4414 31.5332 12.082 31.7363 11.6211C31.9434 11.1562 32.0469 10.6133 32.0469 9.99219V9.4707C32.0469 8.98242 31.9883 8.54883 31.8711 8.16992C31.7539 7.78711 31.582 7.46484 31.3555 7.20312C31.1289 6.9375 30.8516 6.73633 30.5234 6.59961C30.1992 6.46289 29.8262 6.39453 29.4043 6.39453H27.4824V5.46875H29.4043C29.9629 5.46875 30.4727 5.5625 30.9336 5.75C31.3945 5.93359 31.791 6.20117 32.123 6.55273C32.459 6.90039 32.7168 7.32227 32.8965 7.81836C33.0762 8.31055 33.166 8.86523 33.166 9.48242V9.99219C33.166 10.6094 33.0762 11.166 32.8965 11.6621C32.7168 12.1543 32.457 12.5742 32.1172 12.9219C31.7812 13.2695 31.375 13.5371 30.8984 13.7246C30.4258 13.9082 29.8926 14 29.2988 14ZM28.1211 5.46875V14H26.9902V5.46875H28.1211ZM37.332 14.1172C36.8906 14.1172 36.4902 14.043 36.1309 13.8945C35.7754 13.7422 35.4688 13.5293 35.2109 13.2559C34.957 12.9824 34.7617 12.6582 34.625 12.2832C34.4883 11.9082 34.4199 11.498 34.4199 11.0527V10.8066C34.4199 10.291 34.4961 9.83203 34.6484 9.42969C34.8008 9.02344 35.0078 8.67969 35.2695 8.39844C35.5312 8.11719 35.8281 7.9043 36.1602 7.75977C36.4922 7.61523 36.8359 7.54297 37.1914 7.54297C37.6445 7.54297 38.0352 7.62109 38.3633 7.77734C38.6953 7.93359 38.9668 8.15234 39.1777 8.43359C39.3887 8.71094 39.5449 9.03906 39.6465 9.41797C39.748 9.79297 39.7988 10.2031 39.7988 10.6484V11.1348H35.0645V10.25H38.7148V10.168C38.6992 9.88672 38.6406 9.61328 38.5391 9.34766C38.4414 9.08203 38.2852 8.86328 38.0703 8.69141C37.8555 8.51953 37.5625 8.43359 37.1914 8.43359C36.9453 8.43359 36.7188 8.48633 36.5117 8.5918C36.3047 8.69336 36.127 8.8457 35.9785 9.04883C35.8301 9.25195 35.7148 9.5 35.6328 9.79297C35.5508 10.0859 35.5098 10.4238 35.5098 10.8066V11.0527C35.5098 11.3535 35.5508 11.6367 35.6328 11.9023C35.7188 12.1641 35.8418 12.3945 36.002 12.5938C36.166 12.793 36.3633 12.9492 36.5938 13.0625C36.8281 13.1758 37.0938 13.2324 37.3906 13.2324C37.7734 13.2324 38.0977 13.1543 38.3633 12.998C38.6289 12.8418 38.8613 12.6328 39.0605 12.3711L39.7168 12.8926C39.5801 13.0996 39.4062 13.2969 39.1953 13.4844C38.9844 13.6719 38.7246 13.8242 38.416 13.9414C38.1113 14.0586 37.75 14.1172 37.332 14.1172ZM42.2422 5V14H41.1523V5H42.2422ZM46.6133 14.1172C46.1719 14.1172 45.7715 14.043 45.4121 13.8945C45.0566 13.7422 44.75 13.5293 44.4922 13.2559C44.2383 12.9824 44.043 12.6582 43.9062 12.2832C43.7695 11.9082 43.7012 11.498 43.7012 11.0527V10.8066C43.7012 10.291 43.7773 9.83203 43.9297 9.42969C44.082 9.02344 44.2891 8.67969 44.5508 8.39844C44.8125 8.11719 45.1094 7.9043 45.4414 7.75977C45.7734 7.61523 46.1172 7.54297 46.4727 7.54297C46.9258 7.54297 47.3164 7.62109 47.6445 7.77734C47.9766 7.93359 48.248 8.15234 48.459 8.43359C48.6699 8.71094 48.8262 9.03906 48.9277 9.41797C49.0293 9.79297 49.0801 10.2031 49.0801 10.6484V11.1348H44.3457V10.25H47.9961V10.168C47.9805 9.88672 47.9219 9.61328 47.8203 9.34766C47.7227 9.08203 47.5664 8.86328 47.3516 8.69141C47.1367 8.51953 46.8438 8.43359 46.4727 8.43359C46.2266 8.43359 46 8.48633 45.793 8.5918C45.5859 8.69336 45.4082 8.8457 45.2598 9.04883C45.1113 9.25195 44.9961 9.5 44.9141 9.79297C44.832 10.0859 44.791 10.4238 44.791 10.8066V11.0527C44.791 11.3535 44.832 11.6367 44.9141 11.9023C45 12.1641 45.123 12.3945 45.2832 12.5938C45.4473 12.793 45.6445 12.9492 45.875 13.0625C46.1094 13.1758 46.375 13.2324 46.6719 13.2324C47.0547 13.2324 47.3789 13.1543 47.6445 12.998C47.9102 12.8418 48.1426 12.6328 48.3418 12.3711L48.998 12.8926C48.8613 13.0996 48.6875 13.2969 48.4766 13.4844C48.2656 13.6719 48.0059 13.8242 47.6973 13.9414C47.3926 14.0586 47.0312 14.1172 46.6133 14.1172ZM53 7.66016V8.49219H49.5723V7.66016H53ZM50.7324 6.11914H51.8164V12.4297C51.8164 12.6445 51.8496 12.8066 51.916 12.916C51.9824 13.0254 52.0684 13.0977 52.1738 13.1328C52.2793 13.168 52.3926 13.1855 52.5137 13.1855C52.6035 13.1855 52.6973 13.1777 52.7949 13.1621C52.8965 13.1426 52.9727 13.127 53.0234 13.1152L53.0293 14C52.9434 14.0273 52.8301 14.0527 52.6895 14.0762C52.5527 14.1035 52.3867 14.1172 52.1914 14.1172C51.9258 14.1172 51.6816 14.0645 51.459 13.959C51.2363 13.8535 51.0586 13.6777 50.9258 13.4316C50.7969 13.1816 50.7324 12.8457 50.7324 12.4238V6.11914ZM56.9023 14.1172C56.4609 14.1172 56.0605 14.043 55.7012 13.8945C55.3457 13.7422 55.0391 13.5293 54.7812 13.2559C54.5273 12.9824 54.332 12.6582 54.1953 12.2832C54.0586 11.9082 53.9902 11.498 53.9902 11.0527V10.8066C53.9902 10.291 54.0664 9.83203 54.2188 9.42969C54.3711 9.02344 54.5781 8.67969 54.8398 8.39844C55.1016 8.11719 55.3984 7.9043 55.7305 7.75977C56.0625 7.61523 56.4062 7.54297 56.7617 7.54297C57.2148 7.54297 57.6055 7.62109 57.9336 7.77734C58.2656 7.93359 58.5371 8.15234 58.748 8.43359C58.959 8.71094 59.1152 9.03906 59.2168 9.41797C59.3184 9.79297 59.3691 10.2031 59.3691 10.6484V11.1348H54.6348V10.25H58.2852V10.168C58.2695 9.88672 58.2109 9.61328 58.1094 9.34766C58.0117 9.08203 57.8555 8.86328 57.6406 8.69141C57.4258 8.51953 57.1328 8.43359 56.7617 8.43359C56.5156 8.43359 56.2891 8.48633 56.082 8.5918C55.875 8.69336 55.6973 8.8457 55.5488 9.04883C55.4004 9.25195 55.2852 9.5 55.2031 9.79297C55.1211 10.0859 55.0801 10.4238 55.0801 10.8066V11.0527C55.0801 11.3535 55.1211 11.6367 55.2031 11.9023C55.2891 12.1641 55.4121 12.3945 55.5723 12.5938C55.7363 12.793 55.9336 12.9492 56.1641 13.0625C56.3984 13.1758 56.6641 13.2324 56.9609 13.2324C57.3438 13.2324 57.668 13.1543 57.9336 12.998C58.1992 12.8418 58.4316 12.6328 58.6309 12.3711L59.2871 12.8926C59.1504 13.0996 58.9766 13.2969 58.7656 13.4844C58.5547 13.6719 58.2949 13.8242 57.9863 13.9414C57.6816 14.0586 57.3203 14.1172 56.9023 14.1172Z" fill="#121212"/>
</svg>
