<svg width="40" height="40" viewBox="0 0 40 40" fill="none" xmlns="http://www.w3.org/2000/svg">
<path d="M20.0002 4.5835C8.4385 4.5835 4.5835 8.4385 4.5835 20.0002C4.5835 31.5618 8.4385 35.4168 20.0002 35.4168C31.5618 35.4168 35.4168 31.5618 35.4168 20.0002" stroke="white" stroke-width="2" stroke-linecap="round" stroke-linejoin="round"/>
<path fill-rule="evenodd" clip-rule="evenodd" d="M32.5472 7.17297V7.17297C30.8922 5.70797 28.3639 5.86131 26.8989 7.51631C26.8989 7.51631 19.6172 15.7413 17.0922 18.5963C14.5639 21.4496 16.4172 25.3913 16.4172 25.3913C16.4172 25.3913 20.5906 26.713 23.0806 23.8996C25.5722 21.0863 32.8906 12.8213 32.8906 12.8213C34.3556 11.1663 34.2006 8.63797 32.5472 7.17297Z" stroke="white" stroke-width="2" stroke-linecap="round" stroke-linejoin="round"/>
<path d="M25.0146 9.66797L31.0063 14.973" stroke="white" stroke-width="2" stroke-linecap="round" stroke-linejoin="round"/>
</svg>
