<svg width="230" height="238" viewBox="0 0 230 238" fill="none" xmlns="http://www.w3.org/2000/svg">
<g clip-path="url(#clip0_132_3202)">
<path d="M117.415 237.841C179.594 237.841 230 208.74 230 172.841C230 136.942 179.594 107.84 117.415 107.84C55.2363 107.84 4.83032 136.942 4.83032 172.841C4.83032 208.74 55.2363 237.841 117.415 237.841Z" fill="#F5F5F5"/>
<path d="M99.5053 195.608C114.101 195.608 125.933 188.776 125.933 180.349C125.933 171.922 114.101 165.091 99.5053 165.091C84.9098 165.091 73.0779 171.922 73.0779 180.349C73.0779 188.776 84.9098 195.608 99.5053 195.608Z" fill="#E0E0E0"/>
<path d="M144.309 209.777C161.982 209.777 176.308 201.506 176.308 191.304C176.308 181.101 161.982 172.83 144.309 172.83C126.637 172.83 112.311 181.101 112.311 191.304C112.311 201.506 126.637 209.777 144.309 209.777Z" fill="#E0E0E0"/>
<path d="M105.94 174.95C109.477 176.995 109.477 180.306 105.94 182.346C102.404 184.391 96.6661 184.391 93.1292 182.346C89.5923 180.301 89.5923 176.99 93.1292 174.95C96.6661 172.905 102.404 172.905 105.94 174.95Z" fill="#37474F"/>
<path d="M108.597 174.51H90.4779V178.648H108.597V174.51Z" fill="#37474F"/>
<path d="M105.94 170.812C109.477 172.857 109.477 176.168 105.94 178.208C102.404 180.253 96.6661 180.253 93.1292 178.208C89.5923 176.163 89.5923 172.852 93.1292 170.812C96.6661 168.767 102.404 168.767 105.94 170.812Z" fill="#455A64"/>
<path d="M102.554 171.751C104.218 172.712 104.218 174.274 102.554 175.234C100.89 176.195 98.1851 176.195 96.5213 175.234C94.8575 174.274 94.8575 172.712 96.5213 171.751C98.1851 170.79 100.89 170.79 102.554 171.751Z" fill="#263238"/>
<path d="M103.804 95.3726H95.2708V173.495H103.804V95.3726Z" fill="#263238"/>
<path d="M58.4474 94.4978V66.2509L88.358 49.1515L91.0523 75.2676L58.4474 94.4978Z" fill="#F8D267"/>
<path opacity="0.5" d="M58.4474 94.4978V66.2509L88.358 49.1515L91.0523 75.2676L58.4474 94.4978Z" fill="black"/>
<path d="M58.4474 94.4978L91.0523 75.2676V106.005L84.3059 109.429L58.4474 94.4978Z" fill="#F8D267"/>
<path opacity="0.3" d="M58.4474 94.4978L91.0523 75.2676V106.005L84.3059 109.429L58.4474 94.4978Z" fill="black"/>
<path d="M134.386 59.2952L131.294 60.9966L112.478 71.3014L109.075 73.1691L85.5564 86.05C84.0643 83.5275 80.184 71.7629 78.123 69.6322C76.0674 67.5068 73.7757 65.6606 71.3712 64.2705C68.4194 62.5638 65.65 61.7534 63.267 61.7534C61.7481 61.7534 60.3849 62.0807 59.231 62.7141L105.715 35.8788L105.731 35.868L106.654 35.3367H106.665C106.799 35.2669 106.933 35.2025 107.073 35.1488C107.212 35.0952 107.347 35.0415 107.492 34.9932C107.497 34.9878 107.508 34.9878 107.518 34.9825C107.658 34.9395 107.792 34.8966 107.937 34.8537C108.087 34.8107 108.243 34.7785 108.393 34.7409C108.517 34.7141 108.635 34.6926 108.758 34.6712C108.823 34.6604 108.892 34.6497 108.957 34.6443C109.171 34.6121 109.392 34.5907 109.617 34.5746C109.703 34.5638 109.799 34.5638 109.885 34.5585C110.036 34.5531 110.186 34.5477 110.336 34.5477C111.528 34.5477 112.821 34.7517 114.179 35.1649C115.537 35.5836 116.975 36.2115 118.446 37.0649C118.521 37.1078 118.601 37.1508 118.677 37.2044C126.448 41.7986 132.905 51.089 134.364 59.306L134.386 59.2952Z" fill="#F8D267"/>
<path d="M59.2202 62.7141L59.1826 62.7356C59.1826 62.7356 59.2095 62.7195 59.2202 62.7141Z" fill="#F8D267"/>
<g opacity="0.3">
<path d="M134.386 59.2952L131.294 60.9966L112.478 71.3014L109.075 73.1691L85.5564 86.05C84.0643 83.5275 80.184 71.7629 78.123 69.6322C76.0674 67.5068 73.7757 65.6606 71.3712 64.2705C68.4194 62.5638 65.65 61.7534 63.267 61.7534C61.7481 61.7534 60.3849 62.0807 59.231 62.7141L105.715 35.8788L105.731 35.868L106.654 35.3367H106.665C106.799 35.2669 106.933 35.2025 107.073 35.1488C107.212 35.0952 107.347 35.0415 107.492 34.9932C107.497 34.9878 107.508 34.9878 107.518 34.9825C107.658 34.9395 107.792 34.8966 107.937 34.8537C108.087 34.8107 108.243 34.7785 108.393 34.7409C108.517 34.7141 108.635 34.6926 108.758 34.6712C108.823 34.6604 108.892 34.6497 108.957 34.6443C109.171 34.6121 109.392 34.5907 109.617 34.5746C109.703 34.5638 109.799 34.5638 109.885 34.5585C110.036 34.5531 110.186 34.5477 110.336 34.5477C111.528 34.5477 112.821 34.7517 114.179 35.1649C115.537 35.5836 116.975 36.2115 118.446 37.0649C118.521 37.1078 118.601 37.1508 118.677 37.2044C126.448 41.7986 132.905 51.089 134.364 59.306L134.386 59.2952Z" fill="black"/>
<path d="M59.2202 62.7141L59.1826 62.7356C59.1826 62.7356 59.2095 62.7195 59.2202 62.7141Z" fill="black"/>
</g>
<path d="M130.602 49.5111C130.645 49.5809 130.688 49.6507 130.726 49.7204C130.688 49.6507 130.645 49.5809 130.608 49.5111H130.602Z" fill="#F8D267"/>
<path d="M133.076 54.6312C133.672 56.1984 134.118 57.7656 134.391 59.2952L131.3 60.9966L112.483 71.3013L109.08 73.1691L85.5618 86.05L87.6227 115.172L134.713 87.966V62.6818C134.713 60.1378 134.123 57.3899 133.082 54.642L133.076 54.6312Z" fill="#F8D267"/>
<path d="M132.379 52.946C132.18 52.5059 131.971 52.0605 131.751 51.6204C131.971 52.0605 132.18 52.5006 132.379 52.946Z" fill="#F8D267"/>
<path d="M133.055 54.583C132.872 54.1054 132.674 53.6223 132.464 53.1447C132.674 53.6223 132.872 54.1 133.055 54.583Z" fill="#F8D267"/>
<g opacity="0.5">
<path d="M130.602 49.5111C130.645 49.5809 130.688 49.6507 130.726 49.7204C130.688 49.6507 130.645 49.5809 130.608 49.5111H130.602Z" fill="black"/>
<path d="M133.076 54.6312C133.672 56.1984 134.118 57.7656 134.391 59.2952L131.3 60.9966L112.483 71.3013L109.08 73.1691L85.5618 86.05L87.6227 115.172L134.713 87.966V62.6818C134.713 60.1378 134.123 57.3899 133.082 54.642L133.076 54.6312Z" fill="black"/>
<path d="M132.379 52.946C132.18 52.5059 131.971 52.0605 131.751 51.6204C131.971 52.0605 132.18 52.5006 132.379 52.946Z" fill="black"/>
<path d="M133.055 54.583C132.872 54.1054 132.674 53.6223 132.464 53.1447C132.674 53.6223 132.872 54.1 133.055 54.583Z" fill="black"/>
</g>
<path d="M63.267 65.0595C65.1401 65.0595 67.3728 65.7787 69.7182 67.1312C77.6238 71.6986 84.3058 82.116 84.3058 89.8822V109.429L58.4473 94.4979V71.1243C58.4473 66.1115 61.0665 65.0542 63.267 65.0542M63.267 61.7427C58.4044 61.7427 55.1359 65.1078 55.1359 71.1243V96.4085L87.6227 115.161V89.8768C87.6227 80.9085 80.3503 69.4337 71.382 64.2598C68.4301 62.5531 65.6607 61.7427 63.2723 61.7427H63.267Z" fill="#F8D267"/>
<path d="M55.1358 96.4084L37.6446 106.064C30.0287 110.261 29.916 121.167 37.446 125.514C47.3589 131.235 59.5637 131.241 69.482 125.525L87.6173 115.166L55.1305 96.4138L55.1358 96.4084Z" fill="#F8D267"/>
<path opacity="0.2" d="M55.1358 96.4084L37.6446 106.064C30.0287 110.261 29.916 121.167 37.446 125.514C47.3589 131.235 59.5637 131.241 69.482 125.525L87.6173 115.166L55.1305 96.4138L55.1358 96.4084Z" fill="white"/>
<path d="M98.4587 107.459L94.8091 109.569V74.3339L98.4587 72.2246V107.459Z" fill="#E0E0E0"/>
<path d="M105.345 75.2891L94.8091 81.37V74.3338L105.345 68.2476V75.2891Z" fill="#E0E0E0"/>
<path d="M100.026 106.225C100.026 108.409 98.4909 111.066 96.6017 112.155C94.7125 113.245 93.1775 112.365 93.1775 110.18C93.1775 107.996 94.7125 105.339 96.6017 104.25C98.4909 103.16 100.026 104.04 100.026 106.225Z" fill="#F8D267"/>
<path opacity="0.2" d="M100.026 106.225C100.026 108.409 98.4909 111.066 96.6017 112.155C94.7125 113.245 93.1775 112.365 93.1775 110.18C93.1775 107.996 94.7125 105.339 96.6017 104.25C98.4909 103.16 100.026 104.04 100.026 106.225Z" fill="black"/>
<path d="M101.169 106.885C101.169 109.069 99.6341 111.726 97.7449 112.816C95.8557 113.905 94.3207 113.025 94.3207 110.841C94.3207 108.656 95.8557 105.999 97.7449 104.91C99.6341 103.82 101.169 104.701 101.169 106.885Z" fill="#F8D267"/>
<path d="M177.655 164.914L183.714 168.434C183.714 168.434 180.655 158.672 182.357 148.855C182.995 145.147 184.348 143.306 184.82 142.318C185.298 141.331 188.947 135.207 185.732 132.384C182.518 129.561 174.971 135.175 175.31 150.299C175.481 158.06 177.655 164.914 177.655 164.914Z" fill="#F8D267"/>
<path opacity="0.3" d="M177.655 164.914L183.714 168.434C183.714 168.434 180.655 158.672 182.357 148.855C182.995 145.147 184.348 143.306 184.82 142.318C185.298 141.331 188.947 135.207 185.732 132.384C182.518 129.561 174.971 135.175 175.31 150.299C175.481 158.06 177.655 164.914 177.655 164.914Z" fill="black"/>
<path d="M180.473 166.824C180.36 166.824 180.258 166.755 180.221 166.647C180.199 166.583 177.907 160.223 178.025 150.02C178.149 139.753 183.543 134.284 183.596 134.23C183.704 134.123 183.876 134.123 183.977 134.23C184.085 134.338 184.085 134.509 183.977 134.611C183.924 134.665 178.686 139.994 178.567 150.025C178.449 160.121 180.704 166.4 180.73 166.459C180.784 166.599 180.709 166.755 180.569 166.808C180.537 166.819 180.505 166.824 180.478 166.824H180.473Z" fill="white"/>
<path d="M182.357 167.667L192.366 173.555C192.366 173.555 196.95 172.878 196.601 168.563C196.252 164.248 194.39 163.234 196.708 161.334C199.027 159.439 199.628 159.31 199.515 157.453C199.402 155.596 198.152 154.786 197.567 154.051C196.976 153.315 195.339 151.77 196.493 149.526C197.647 147.283 199.209 145.12 196.891 144.095C195.506 143.483 193.177 144.251 191.631 145.887C190.085 147.53 188.813 148.705 187.348 149.086C185.883 149.467 182.834 149.499 182.936 152.017C183.038 154.539 183.693 155.409 183.081 156.53C181.927 158.64 177.006 159.772 182.351 167.662L182.357 167.667Z" fill="#F8D267"/>
<path d="M186.43 170.334C186.291 170.334 186.173 170.227 186.162 170.088C186.151 169.937 185.062 155.011 195.431 145.211C195.538 145.109 195.71 145.115 195.812 145.222C195.914 145.329 195.908 145.501 195.801 145.603C185.625 155.221 186.688 169.894 186.699 170.039C186.709 170.189 186.602 170.318 186.452 170.329C186.446 170.329 186.436 170.329 186.43 170.329V170.334Z" fill="white"/>
<path d="M188.228 157.539C188.089 157.539 187.971 157.432 187.96 157.287C187.67 153.369 184.944 151.356 184.917 151.335C184.793 151.249 184.766 151.077 184.858 150.959C184.944 150.836 185.115 150.809 185.233 150.9C185.351 150.986 188.191 153.074 188.502 157.255C188.513 157.405 188.4 157.534 188.25 157.545C188.244 157.545 188.234 157.545 188.228 157.545V157.539Z" fill="white"/>
<path d="M187.487 160.089C187.423 160.089 187.359 160.067 187.305 160.019C187.192 159.917 187.187 159.745 187.284 159.638C187.391 159.514 189.999 156.697 196.032 157.523C196.182 157.545 196.284 157.679 196.263 157.829C196.241 157.979 196.107 158.081 195.957 158.06C190.203 157.271 187.708 159.971 187.681 159.997C187.627 160.057 187.552 160.089 187.477 160.089H187.487Z" fill="white"/>
<path d="M67.4371 79.8727C66.9594 79.8727 66.4764 79.8512 66.0041 79.8136C65.7304 79.7922 65.5318 79.5507 65.5533 79.2769C65.5747 79.0032 65.8216 78.7993 66.09 78.8261C66.7286 78.8798 67.3727 78.8959 68.006 78.8744C68.2744 78.8744 68.5051 79.0784 68.5159 79.3521C68.5266 79.6258 68.3119 79.8512 68.0382 79.8619C67.8396 79.8673 67.641 79.8727 67.4371 79.8727ZM69.9811 79.6687C69.7449 79.6687 69.5356 79.497 69.4927 79.2555C69.4497 78.9871 69.6322 78.7295 69.9006 78.6866C70.5339 78.5846 71.1565 78.4343 71.7576 78.2518C72.0206 78.1713 72.2943 78.3162 72.3748 78.5792C72.4553 78.8422 72.3104 79.1159 72.0474 79.1964C71.4034 79.395 70.7378 79.5507 70.0616 79.6634C70.0348 79.6634 70.0079 79.6687 69.9811 79.6687ZM64.0881 79.5346C64.0559 79.5346 64.0236 79.5346 63.9861 79.5238C63.3259 79.3896 62.6658 79.2125 62.0217 78.9978C61.7641 78.912 61.6246 78.6329 61.7104 78.3753C61.7963 78.1176 62.0754 77.9727 62.333 78.064C62.9341 78.2626 63.5621 78.4289 64.1847 78.5577C64.453 78.6114 64.6248 78.8744 64.5711 79.1428C64.5228 79.3735 64.3188 79.5346 64.0881 79.5346ZM73.7434 78.5094C73.5555 78.5094 73.3784 78.4075 73.2979 78.225C73.1799 77.9781 73.2872 77.6829 73.5341 77.5648C73.6468 77.5112 73.7649 77.4575 73.8776 77.3985C74.1191 77.275 74.4196 77.3716 74.5431 77.6131C74.6665 77.8547 74.5699 78.1552 74.3284 78.2787C74.205 78.3431 74.0815 78.4021 73.9581 78.4611C73.8883 78.4933 73.8185 78.5094 73.7488 78.5094H73.7434ZM60.3418 78.2948C60.2721 78.2948 60.2023 78.2787 60.1325 78.2465C59.5261 77.962 58.9249 77.6453 58.3453 77.2911C58.1091 77.1516 58.034 76.8457 58.1789 76.6149C58.3185 76.3787 58.6244 76.3036 58.8552 76.4485C59.408 76.7813 59.9769 77.0872 60.5512 77.3502C60.798 77.4629 60.9054 77.7581 60.7927 78.0049C60.7068 78.1821 60.5297 78.2894 60.3418 78.2894V78.2948ZM56.966 76.2606C56.864 76.2606 56.7566 76.2284 56.6708 76.164C56.1394 75.7669 55.6188 75.3321 55.1143 74.8706C54.9104 74.6881 54.8996 74.3714 55.0821 74.1729C55.2646 73.9689 55.5759 73.9582 55.7798 74.1407C56.2575 74.5808 56.7567 74.994 57.2612 75.3697C57.4812 75.5361 57.5241 75.842 57.3578 76.0621C57.2612 76.1909 57.1109 76.2606 56.9606 76.2606H56.966ZM54.0517 73.604C53.9175 73.604 53.7833 73.5503 53.6867 73.4429C53.2412 72.9545 52.8011 72.4339 52.3932 71.8972C52.2269 71.6825 52.2698 71.3713 52.4845 71.2049C52.7045 71.0385 53.0104 71.0814 53.1768 71.2961C53.5686 71.8114 53.9872 72.3105 54.4166 72.7774C54.5991 72.9814 54.5884 73.2927 54.3844 73.4751C54.2878 73.561 54.1697 73.604 54.0517 73.604ZM51.6472 70.475C51.4862 70.475 51.3252 70.3945 51.2339 70.2495C51.0193 69.9114 50.8099 69.5733 50.6114 69.2298C50.4772 68.9937 50.343 68.7521 50.2142 68.5106C50.0854 68.2691 50.1766 67.9685 50.4182 67.8451C50.6597 67.7163 50.9602 67.8075 51.089 68.049C51.2125 68.2798 51.3413 68.5106 51.4701 68.736C51.6633 69.0688 51.8619 69.3962 52.0658 69.7182C52.2161 69.949 52.1463 70.2549 51.9156 70.3998C51.8351 70.4535 51.7385 70.4803 51.6472 70.4803V70.475ZM49.7956 66.9864C49.6024 66.9864 49.4199 66.8737 49.3394 66.6858C49.0764 66.0632 48.8349 65.4246 48.6363 64.7912C48.5558 64.5336 48.6953 64.2545 48.9583 64.1687C49.2213 64.0828 49.495 64.2277 49.5809 64.4907C49.7741 65.0972 49.9995 65.7036 50.2518 66.2994C50.3591 66.5516 50.241 66.8415 49.9888 66.9488C49.9244 66.9756 49.86 66.9864 49.7956 66.9864ZM48.5934 63.2294C48.3679 63.2294 48.1586 63.0684 48.1103 62.8376C47.9654 62.1721 47.8581 61.4959 47.7883 60.8357C47.7615 60.562 47.9547 60.3205 48.2284 60.2936C48.2982 60.2829 48.3679 60.2936 48.4323 60.3151C48.5075 60.1863 48.6363 60.0951 48.7919 60.0736C49.4199 59.9877 50.0425 59.8482 50.6436 59.6657C50.9066 59.5852 51.1803 59.7301 51.2608 59.9931C51.3413 60.2561 51.1964 60.5298 50.9334 60.6103C50.284 60.8089 49.6131 60.9592 48.9315 61.0558C48.8885 61.0611 48.8456 61.0611 48.808 61.0558C48.8724 61.5817 48.9637 62.1077 49.0764 62.6337C49.1354 62.902 48.9637 63.165 48.6953 63.2187C48.6578 63.2241 48.6256 63.2294 48.5934 63.2294ZM46.892 61.1792C46.2211 61.1738 45.5341 61.1148 44.8579 61.0128C44.5895 60.9699 44.4017 60.723 44.4446 60.4493C44.4875 60.1809 44.7344 59.9985 45.0082 60.036C45.6415 60.1326 46.2801 60.1809 46.9081 60.1917C47.1818 60.1917 47.4019 60.4171 47.3965 60.6908C47.3965 60.9592 47.1711 61.1792 46.9027 61.1792H46.892ZM42.9955 60.5996C42.9526 60.5996 42.9043 60.5942 42.8613 60.5781C42.2119 60.3903 41.5679 60.1648 40.9399 59.8965C40.6877 59.7891 40.575 59.4993 40.6769 59.2471C40.7843 58.9948 41.0741 58.8821 41.3264 58.9841C41.9167 59.2363 42.5232 59.451 43.1297 59.6228C43.3927 59.6979 43.5429 59.9716 43.4678 60.2346C43.4034 60.4493 43.2102 60.5942 42.9955 60.5942V60.5996ZM52.6186 59.8911C52.4415 59.8911 52.2644 59.7945 52.1785 59.6228C52.0551 59.3812 52.1463 59.0807 52.3879 58.9572C52.9675 58.6567 53.4881 58.3078 53.9336 57.9268C54.1375 57.7497 54.4488 57.7711 54.6313 57.9804C54.8084 58.1844 54.7869 58.501 54.5776 58.6782C54.0785 59.1129 53.4935 59.4993 52.8441 59.8374C52.7689 59.875 52.6938 59.8911 52.6186 59.8911ZM48.1908 59.3061H48.1855C47.9117 59.3061 47.6971 59.0807 47.6971 58.807C47.7078 58.12 47.7615 57.4384 47.8527 56.7729C47.8903 56.5045 48.1371 56.3113 48.4109 56.3542C48.6792 56.3918 48.8671 56.644 48.8295 56.9124C48.7436 57.535 48.69 58.1737 48.6846 58.8177C48.6846 59.0861 48.4592 59.3061 48.1908 59.3061ZM39.3674 59.0539C39.2815 59.0539 39.201 59.0324 39.1205 58.9895C38.5355 58.6513 37.9612 58.2703 37.4245 57.8677C37.2045 57.7014 37.1615 57.3954 37.3279 57.1754C37.4889 56.9553 37.8002 56.9124 38.0202 57.0788C38.5247 57.4598 39.0668 57.8141 39.6143 58.1361C39.8504 58.2703 39.9309 58.5762 39.7967 58.8123C39.7055 58.9733 39.5391 59.0592 39.3674 59.0592V59.0539ZM55.533 57.2935C55.4471 57.2935 55.3612 57.272 55.2861 57.2237C55.0499 57.0841 54.9694 56.7836 55.109 56.5474C55.2539 56.3006 55.3773 56.0429 55.4686 55.7799C55.5652 55.5009 55.6242 55.2057 55.651 54.8997C55.6725 54.626 55.8979 54.4221 56.1824 54.4436C56.4561 54.465 56.66 54.7012 56.6386 54.9695C56.6117 55.3667 56.5312 55.7477 56.4024 56.1073C56.2897 56.4294 56.1448 56.746 55.9677 57.0466C55.8765 57.2022 55.7101 57.2881 55.5383 57.2881L55.533 57.2935ZM36.2223 56.6762C36.0988 56.6762 35.9754 56.6279 35.8788 56.5367C35.7661 56.4294 35.6587 56.3167 35.546 56.2039C35.1864 55.8336 34.8376 55.4418 34.5048 55.0339C34.3331 54.8246 34.3653 54.5133 34.5746 54.3416C34.7839 54.1698 35.0952 54.202 35.2669 54.4113C35.5836 54.7978 35.911 55.1681 36.2491 55.517C36.3511 55.6243 36.4531 55.7263 36.555 55.8282C36.7536 56.0161 36.7536 56.3328 36.5658 56.526C36.4692 56.6279 36.3404 56.6762 36.2115 56.6762H36.2223ZM48.7597 55.4043C48.7114 55.4043 48.6631 55.3989 48.6148 55.3828C48.3518 55.3023 48.2069 55.0286 48.2874 54.7656C48.5075 54.041 48.7973 53.3916 49.1408 52.8442C49.2857 52.6134 49.5916 52.5436 49.8224 52.6885C50.0532 52.8334 50.123 53.1394 49.9781 53.3701C49.6829 53.8424 49.4306 54.406 49.232 55.05C49.1676 55.2647 48.969 55.3989 48.7597 55.3989V55.4043ZM33.732 53.6224C33.571 53.6224 33.4099 53.5419 33.3187 53.397C32.9591 52.8388 32.6156 52.2538 32.3043 51.6419C32.1809 51.4004 32.2775 51.0999 32.519 50.9764C32.7605 50.853 33.0611 50.9496 33.1845 51.1911C33.4797 51.7708 33.8071 52.3289 34.1506 52.8549C34.3009 53.0857 34.2365 53.3916 34.0057 53.5365C33.9252 53.5902 33.8286 53.617 33.7373 53.617L33.732 53.6224ZM55.8281 53.4989C55.6349 53.4989 55.4525 53.3862 55.3719 53.193C55.1412 52.6348 54.7869 52.1786 54.3468 51.8888C54.1214 51.7386 54.057 51.4273 54.2127 51.2018C54.3629 50.9764 54.6742 50.912 54.8996 51.0677C55.5008 51.4702 55.9838 52.0767 56.2897 52.8173C56.3917 53.0696 56.2736 53.3594 56.0214 53.4614C55.957 53.4882 55.8979 53.4989 55.8335 53.4989H55.8281ZM50.9066 52.1786C50.7455 52.1786 50.5899 52.1035 50.4987 51.9586C50.3484 51.7332 50.4074 51.4273 50.6328 51.2716C51.2769 50.8369 51.9907 50.5739 52.7045 50.5149C52.9729 50.488 53.2144 50.692 53.2412 50.9657C53.2627 51.2394 53.0641 51.4756 52.7904 51.5024C52.2483 51.5507 51.6901 51.7547 51.191 52.0928C51.1051 52.1518 51.0085 52.1786 50.9173 52.1786H50.9066ZM31.9233 50.1177C31.7247 50.1177 31.5422 49.9996 31.4671 49.8064C31.2202 49.1892 30.9948 48.5505 30.8015 47.9011C30.721 47.6381 30.8713 47.3644 31.1343 47.2839C31.3919 47.2034 31.671 47.3537 31.7515 47.6113C31.9394 48.2339 32.154 48.8457 32.3902 49.4361C32.4922 49.6883 32.3687 49.9782 32.1165 50.0801C32.0574 50.1016 31.993 50.1177 31.934 50.1177H31.9233ZM30.7801 46.3393C30.5547 46.3393 30.3453 46.1783 30.297 45.9475C30.1575 45.2981 30.0448 44.6326 29.9536 43.9617C29.916 43.6933 30.1092 43.4411 30.3776 43.4089C30.6459 43.3767 30.8982 43.5645 30.9304 43.8329C31.0162 44.4769 31.1289 45.1156 31.2631 45.7435C31.3222 46.0119 31.1504 46.2749 30.8821 46.3286C30.8445 46.3339 30.8123 46.3393 30.7801 46.3393ZM30.2541 42.4267C29.9965 42.4267 29.7764 42.2228 29.7603 41.9598C29.7281 41.4284 29.712 40.8917 29.712 40.3604C29.712 40.2208 29.712 40.0867 29.712 39.9471C29.712 39.6734 29.9589 39.4533 30.2112 39.4587C30.4849 39.4587 30.6996 39.6895 30.6996 39.9579C30.6996 40.092 30.6996 40.2262 30.6996 40.355C30.6996 40.8649 30.7157 41.3855 30.7425 41.8954C30.7586 42.1691 30.5493 42.3999 30.2756 42.416C30.2648 42.416 30.2541 42.416 30.2487 42.416L30.2541 42.4267Z" fill="#263238"/>
<path d="M35.1864 24.4685L32.2346 37.2958L0 30.3776L35.1864 24.4685Z" fill="#F8D267"/>
<path opacity="0.3" d="M35.1864 24.4685L32.2346 37.2958L0 30.3776L35.1864 24.4685Z" fill="black"/>
<path d="M0 30.3776L40.1295 29.2881L49.5648 43.8221L0 30.3776Z" fill="#F8D267"/>
<path d="M0 30.3776L35.1864 24.4685L26.8943 14.8507L0 30.3776Z" fill="#F8D267"/>
<g opacity="0.4">
<path d="M75.477 67.8289L75.4395 67.8503C75.4395 67.8503 75.4663 67.8342 75.477 67.8289Z" fill="black"/>
</g>
<path d="M139.798 164.037L131.304 163.821L130.866 181.017L139.359 181.233L139.798 164.037Z" fill="#945959"/>
<path d="M128.638 94.9916C128.638 94.9916 128.042 124.253 128.246 135.851C128.396 144.578 129.759 170.737 129.759 170.737C129.759 170.737 135.266 174.338 141.073 171.333C141.073 171.333 144.422 144.911 143.606 136.957C143.504 135.991 143.515 135.019 143.628 134.053L148.748 89.7533L128.643 94.9969L128.638 94.9916Z" fill="#37474F"/>
<path d="M133.817 178.637C133.817 178.637 138.529 178.095 139.479 176.566V175.567C139.479 175.567 140.295 176.002 140.139 177.655C139.994 179.19 140.612 181.804 140.698 184.992C140.714 185.518 140.472 186.022 140.053 186.344C139.146 187.047 137.214 188.126 133.817 188.276C132.625 188.33 127.865 191.384 123.899 191.384C119.932 191.384 117.34 189.42 117.34 186.672C117.34 183.924 125.423 181.439 125.423 181.439L129.309 177.66C129.309 177.66 128.557 173.56 131.031 174.548C133.506 175.53 133.817 176.566 133.817 178.643V178.637Z" fill="#37474F"/>
<path d="M132.937 181.009C132.835 181.009 132.738 180.945 132.701 180.843C131.874 178.369 129.293 177.907 129.266 177.907C129.131 177.886 129.04 177.757 129.062 177.623C129.083 177.489 129.217 177.397 129.346 177.419C129.464 177.44 132.25 177.934 133.168 180.687C133.21 180.816 133.141 180.956 133.012 180.999C132.985 181.009 132.958 181.009 132.931 181.009H132.937Z" fill="#FAFAFA"/>
<path d="M131.386 182.56C131.284 182.56 131.187 182.496 131.15 182.394C130.328 179.931 127.741 179.464 127.715 179.458C127.58 179.437 127.489 179.308 127.511 179.174C127.532 179.04 127.661 178.948 127.795 178.97C127.913 178.991 130.699 179.485 131.616 182.238C131.659 182.367 131.59 182.507 131.461 182.55C131.434 182.56 131.407 182.56 131.38 182.56H131.386Z" fill="#FAFAFA"/>
<path d="M130.017 183.892C129.915 183.892 129.818 183.827 129.781 183.725C128.96 181.262 126.373 180.789 126.346 180.789C126.212 180.768 126.121 180.639 126.142 180.505C126.164 180.371 126.292 180.28 126.426 180.301C126.545 180.322 129.33 180.816 130.248 183.57C130.291 183.698 130.221 183.838 130.092 183.881C130.065 183.892 130.039 183.892 130.012 183.892H130.017Z" fill="#FAFAFA"/>
<path d="M117.34 186.666C117.34 189.382 119.873 191.33 123.77 191.373L129.325 189.146C129.325 183.387 125.423 181.433 125.423 181.433C125.423 181.433 117.34 183.918 117.34 186.666Z" fill="#EBEBEB"/>
<path d="M140.563 185.228C139.613 185.963 137.59 187.096 134.037 187.246C132.792 187.3 127.811 190.493 123.663 190.493C120.818 190.493 118.644 189.522 117.566 187.987C118.269 190.015 120.609 191.373 123.899 191.373C127.865 191.373 132.626 188.319 133.817 188.266C137.214 188.115 139.147 187.037 140.054 186.334C140.44 186.033 140.665 185.582 140.687 185.099C140.644 185.142 140.606 185.185 140.563 185.223V185.228Z" fill="#263238"/>
<path d="M133.559 99.0867C133.559 99.0867 134.338 105.71 139.415 109.214L143.896 131.686L146.773 103.59L133.559 99.0867Z" fill="#263238"/>
<path d="M162.731 168.752L154.261 169.414L155.601 186.563L164.072 185.901L162.731 168.752Z" fill="#945959"/>
<path d="M159.466 95.6625C159.466 95.6625 160.491 99.5428 160.99 115.553C161.388 128.241 161.683 135.54 161.79 138.019C161.817 138.637 161.881 139.248 161.989 139.86C162.397 142.227 163.497 149.269 164.082 159.203C164.806 171.537 164.865 177.392 164.865 177.392C164.865 177.392 159.627 181.487 153.305 178.272L147.192 141.481L140.767 107.347C140.767 107.347 131.933 103.981 131.155 94.9862L159.472 95.6571L159.466 95.6625Z" fill="#37474F"/>
<path d="M163.765 181.97L163.894 183.645C163.894 183.645 162.885 185.062 161.694 185.475C161.694 185.475 160.787 182.137 159.166 181.965C157.55 181.793 154.196 181.648 154.647 183.505C155.097 185.362 155.114 186.457 155.114 186.457L152.006 192.259C152.006 192.259 145.684 197.701 148.33 201.174C150.97 204.646 159.831 202.789 160.706 197.341C160.974 195.683 161.957 194.229 163.357 193.3C164.758 192.366 165.026 191.073 164.865 189.828C164.704 188.582 164.329 186.189 164.447 185.105C164.565 184.026 164.855 181.981 163.771 181.965L163.765 181.97Z" fill="#37474F"/>
<path d="M148.324 201.173C150.519 204.056 156.992 203.267 159.633 199.794C159.745 199.257 159.81 198.689 159.81 198.082C159.81 191.883 152.006 192.259 152.006 192.259C152.006 192.259 145.684 197.701 148.33 201.173H148.324Z" fill="#EBEBEB"/>
<path d="M164.86 189.828C164.849 189.736 164.833 189.629 164.817 189.522C164.699 190.418 164.27 191.271 163.255 191.948C161.811 192.914 160.792 194.411 160.518 196.128C159.627 201.699 150.664 203.632 147.82 200.202C147.922 200.54 148.083 200.862 148.319 201.173C150.959 204.646 159.82 202.789 160.695 197.341C160.964 195.683 161.946 194.229 163.346 193.3C164.747 192.366 165.016 191.073 164.855 189.828H164.86Z" fill="#263238"/>
<path d="M159.702 187.756C159.643 187.756 159.579 187.734 159.531 187.691C157.641 185.904 155.14 186.715 155.114 186.725C154.985 186.768 154.845 186.699 154.802 186.57C154.759 186.441 154.829 186.301 154.958 186.258C155.071 186.221 157.759 185.341 159.869 187.332C159.971 187.423 159.971 187.584 159.879 187.681C159.831 187.734 159.767 187.756 159.702 187.756Z" fill="#FAFAFA"/>
<path d="M158.623 189.908C158.564 189.908 158.5 189.887 158.452 189.844C156.563 188.062 154.061 188.867 154.035 188.878C153.906 188.921 153.766 188.851 153.723 188.722C153.68 188.593 153.75 188.454 153.879 188.411C153.992 188.373 156.681 187.493 158.79 189.484C158.886 189.575 158.892 189.736 158.801 189.833C158.752 189.887 158.688 189.908 158.618 189.908H158.623Z" fill="#FAFAFA"/>
<path d="M157.545 192.06C157.486 192.06 157.421 192.039 157.373 191.996C155.484 190.214 152.983 191.019 152.956 191.03C152.827 191.073 152.688 191.003 152.645 190.874C152.602 190.745 152.671 190.606 152.8 190.563C152.913 190.525 155.602 189.645 157.711 191.636C157.808 191.727 157.813 191.888 157.722 191.985C157.674 192.039 157.609 192.06 157.545 192.06Z" fill="#FAFAFA"/>
<path d="M103.241 26.2396C103.241 26.2396 102.312 22.2518 102.184 19.6596C102.055 17.0673 101.303 16.1602 99.72 17.4591C98.1421 18.7525 94.5301 22.5309 94.7448 25.4667C94.997 28.8587 95.7699 31.4671 97.7449 34.6176L104.207 32.2238L103.241 26.2449V26.2396Z" fill="#945959"/>
<path d="M123.249 49.7044L114.002 47.6595C114.002 47.6595 110.062 41.2781 107.781 37.913C105.5 34.5478 104.207 32.2185 104.207 32.2185L97.745 34.6122C97.745 34.6122 104.942 52.5006 108.281 55.5169C109.96 57.0358 120.813 60.3956 120.813 60.3956C120.813 60.3956 125.348 55.6082 123.249 49.7044Z" fill="#945959"/>
<path d="M134.907 52.2161L123.249 49.7043C123.249 49.7043 123.196 54.9748 120.813 60.3955L132.524 64.0022L134.907 52.2161Z" fill="#F8D267"/>
<path opacity="0.3" d="M134.907 52.2161L123.249 49.7043C123.249 49.7043 123.196 54.9748 120.813 60.3955L132.524 64.0022L134.907 52.2161Z" fill="white"/>
<path d="M151.077 53.617L156.498 55.3291L159.471 71.3659L157.711 79.1374C157.47 80.2 157.427 81.2949 157.577 82.3737L159.471 95.6679C159.471 95.6679 154.083 99.0867 144.24 99.0867C134.397 99.0867 128.643 94.9917 128.643 94.9917L129.389 64.7322C129.674 60.036 131.633 55.5921 134.912 52.2162L141.637 52.9944L151.083 53.617H151.077Z" fill="#F8D267"/>
<path d="M133.989 28.161C133.989 28.161 128.81 32.7069 133.313 42.8453L138.578 29.1432L133.989 28.161Z" fill="#263238"/>
<path d="M151.077 53.6169L141.631 52.9943V40.7628H151.077V53.6169Z" fill="#945959"/>
<path d="M141.631 52.2161C144.82 52.2161 149.655 49.3769 149.655 47.4019L150.718 40.7574H141.631V52.2161Z" fill="#703838"/>
<path d="M144.143 25.354C140.966 25.354 134.203 27.1251 133.425 35.4441C132.647 43.763 133.86 50.8314 137.692 50.8314C145.211 50.8314 152.425 49.8761 152.489 37.5748C152.543 26.728 147.245 25.354 144.149 25.354H144.143Z" fill="#945959"/>
<path d="M151.077 44.8633L149.854 41.1063C149.446 41.4552 148.813 41.16 148.813 40.6233V33.9198C148.813 33.9198 145.689 33.0343 146.016 30.4044C146.016 30.4044 144.417 31.8321 138.282 31.8321C132.148 31.8321 130.661 26.6367 131.273 23.7439C131.273 23.7439 132.411 24.9139 135.653 24.9139C138.894 24.9139 152.392 20.8403 152.741 28.9929C152.741 28.9929 153.879 27.3237 155.72 28.9929L153.353 30.3991C153.353 30.3991 156.155 30.3132 155.72 34.4297C155.43 37.1401 154.443 41.8792 153.793 44.8096C153.434 46.4466 152.457 47.8742 151.067 48.8081V44.8579L151.077 44.8633Z" fill="#263238"/>
<path d="M139.49 37.9398V43.28L136.366 42.3193L139.49 37.9398Z" fill="#703838"/>
<path d="M144.465 38.7877C144.465 39.3405 144.02 39.786 143.467 39.786C142.914 39.786 142.469 39.3405 142.469 38.7877C142.469 38.2349 142.914 37.7894 143.467 37.7894C144.02 37.7894 144.465 38.2349 144.465 38.7877Z" fill="#263238"/>
<path d="M136.984 38.0899C136.984 38.6428 136.538 39.0882 135.985 39.0882C135.433 39.0882 134.987 38.6428 134.987 38.0899C134.987 37.5371 135.433 37.0917 135.985 37.0917C136.538 37.0917 136.984 37.5371 136.984 38.0899Z" fill="#263238"/>
<path d="M134.767 36.0076L136.721 34.8483C136.721 34.8483 135.969 34.0701 135.223 34.537C134.477 35.0039 134.767 36.0076 134.767 36.0076Z" fill="#263238"/>
<path d="M145.496 36.7322L143.542 35.5729C143.542 35.5729 144.293 34.7947 145.04 35.2616C145.786 35.7286 145.496 36.7322 145.496 36.7322Z" fill="#263238"/>
<path d="M139.748 45.8454C139.748 45.8454 141.197 44.9169 142.592 43.8704C142.592 43.8704 143.403 45.4483 142.131 46.2641C140.859 47.0799 139.753 45.8454 139.753 45.8454H139.748Z" fill="#703838"/>
<path d="M149.763 41.16L153.224 37.4138L150.739 35.9218L149.763 41.16Z" fill="#253239"/>
<path d="M150.337 39.7002C149.204 41.6591 149.494 44.0421 151.077 44.8579C152.092 45.3839 155.087 44.2514 156.219 42.2925C157.352 40.3335 156.713 38.6482 155.173 37.7573C153.632 36.8664 151.469 37.7358 150.337 39.7002Z" fill="#945959"/>
<path d="M141.631 52.9944L140.343 55.0392C139.291 56.7084 139.919 58.9196 141.69 59.7837C144.905 61.3509 148.775 59.8052 150.025 56.4508L151.077 53.617L141.631 52.9944Z" fill="#945959"/>
<path d="M104.207 32.2185C104.207 32.2185 105.785 29.8141 105.758 27.5331C105.731 25.2521 106.016 24.1894 106.407 23.6473C106.794 23.1053 106.359 22.3002 105.307 22.5847C104.416 22.8262 103.316 24.184 103.074 25.456C102.999 25.8639 102.752 26.2182 102.387 26.4114C101.276 27.0071 99.2101 28.7138 100.192 32.8572L104.207 32.2132V32.2185Z" fill="#945959"/>
<path d="M100.01 30.0287C100.01 30.0287 99.9884 30.0287 99.983 30.0287C99.8811 30.0126 99.8113 29.916 99.8274 29.8194C100.16 27.6994 101.523 26.6743 102.302 26.2556C102.608 26.0893 102.822 25.7887 102.892 25.4291C102.908 25.3271 103.005 25.2627 103.107 25.2788C103.209 25.3003 103.273 25.3969 103.257 25.4935C103.171 25.9658 102.887 26.363 102.479 26.5777C101.76 26.9641 100.504 27.9087 100.192 29.873C100.176 29.9643 100.101 30.0287 100.01 30.0287Z" fill="#703838"/>
<path d="M157.292 75.0959L159.675 80.1195L171.907 84.9606L166.975 70.0133L157.292 75.0959Z" fill="#945959"/>
<path d="M155.774 55.0983C155.774 55.0983 151.695 59.2899 153.46 65.1991C155.221 71.1082 157.292 75.0959 157.292 75.0959C157.292 75.0959 164.168 75.3053 166.975 70.0187L163.47 61.1738C162.354 58.3561 159.976 56.2361 157.051 55.4471L155.774 55.1036V55.0983Z" fill="#F8D267"/>
<path opacity="0.3" d="M155.774 55.0983C155.774 55.0983 151.695 59.2899 153.46 65.1991C155.221 71.1082 157.292 75.0959 157.292 75.0959C157.292 75.0959 164.168 75.3053 166.975 70.0187L163.47 61.1738C162.354 58.3561 159.976 56.2361 157.051 55.4471L155.774 55.1036V55.0983Z" fill="white"/>
<path d="M158.988 79.1856C162.08 80.0927 171.193 82.7923 171.193 82.7923C171.193 82.7923 171.263 82.9909 171.907 84.9606C172.895 87.993 169.776 95.3351 158.661 90.0056C147.551 84.6815 143.51 81.8316 143.51 81.8316L144.717 75.0959C144.717 75.0959 155.462 78.1498 158.994 79.1856H158.988Z" fill="#945959"/>
<path d="M159.31 79.3413L165.064 80.9997L158.629 77.8922L159.31 79.3413Z" fill="#703838"/>
<path d="M143 84.8532L135.787 84.0857C135.261 84.032 134.821 83.6563 134.681 83.1411L130.736 68.3065C130.618 67.8664 130.962 67.4424 131.412 67.4639L138.39 67.7913C138.921 67.8181 139.377 68.1831 139.517 68.693L143.714 84.0052C143.837 84.4614 143.467 84.8961 142.995 84.8478L143 84.8532Z" fill="#37474F"/>
<path d="M133.559 69.6537C133.559 69.9972 133.28 70.2763 132.937 70.2763C132.593 70.2763 132.314 69.9972 132.314 69.6537C132.314 69.3102 132.593 69.0311 132.937 69.0311C133.28 69.0311 133.559 69.3102 133.559 69.6537Z" fill="#263238"/>
<path d="M144.712 75.096C144.712 75.096 142.624 71.4678 140.037 70.5876L141.073 74.5754C141.073 74.5754 139.103 74.731 136.876 74.731C134.649 74.731 132.212 73.2282 131.488 72.8418C130.763 72.45 130.13 75.155 132.931 80.2269C135.738 85.3041 143.51 81.8316 143.51 81.8316L144.717 75.096H144.712Z" fill="#945959"/>
<path d="M176.233 2.10392L180.119 4.31515V2.94118C180.113 2.84457 180.108 2.74796 180.108 2.65136C180.108 2.55475 180.113 2.46351 180.119 2.37227V2.34007C180.258 0.520634 181.637 -0.177084 183.323 0.794354C184.042 1.20762 184.702 1.8624 185.233 2.62989C185.614 0.155674 187.632 -0.740625 190.074 0.670912C192.785 2.23809 194.985 6.04334 194.985 9.17234V12.1189C194.985 12.5912 195.238 13.0313 195.651 13.2728L197.937 14.6145C198.946 15.2049 199.563 16.2891 199.563 17.4591C199.563 18.5057 198.431 19.1551 197.529 18.6345L176.297 6.37073C175.149 5.70521 174.446 4.48152 174.446 3.15586C174.446 2.23273 175.438 1.65845 176.244 2.10928L176.233 2.10392Z" fill="#E6E6E6"/>
<path d="M193.075 26.8192L195.946 28.4562V27.4418C195.946 27.3667 195.935 27.2969 195.935 27.2271C195.935 27.1574 195.935 27.0876 195.946 27.0232V27.0017C196.048 25.6546 197.068 25.1393 198.318 25.8585C198.85 26.1644 199.338 26.6475 199.735 27.2164C200.014 25.3862 201.512 24.7261 203.315 25.7673C205.322 26.9266 206.949 29.7389 206.949 32.0575V34.2365C206.949 34.5854 207.136 34.9128 207.437 35.0899L209.128 36.0828C209.874 36.5229 210.33 37.3226 210.33 38.1867C210.33 38.9595 209.493 39.4426 208.822 39.0561L193.118 29.9804C192.27 29.492 191.744 28.585 191.744 27.6028C191.744 26.9212 192.479 26.4918 193.075 26.83V26.8192Z" fill="#E6E6E6"/>
</g>
<defs>
<clipPath id="clip0_132_3202">
<rect width="230" height="237.836" fill="white"/>
</clipPath>
</defs>
</svg>
