<svg width="38" height="38" viewBox="0 0 38 38" fill="none" xmlns="http://www.w3.org/2000/svg">
<g filter="url(#filter0_d_132_2844)">
<rect x="4" y="4" width="30" height="30" rx="6" fill="white"/>
</g>
<path d="M24.4253 21.1267C24.1879 21.3568 24.0788 21.6896 24.1329 22.0159L24.9478 26.5259C25.0165 26.9082 24.8552 27.295 24.5353 27.5159C24.2218 27.7451 23.8047 27.7726 23.4628 27.5892L19.4029 25.4717C19.2617 25.3966 19.1049 25.3562 18.9445 25.3517H18.6961C18.6099 25.3645 18.5256 25.392 18.4486 25.4342L14.3878 27.5617C14.187 27.6626 13.9597 27.6983 13.7369 27.6626C13.1943 27.5599 12.8322 27.0429 12.9211 26.4975L13.7369 21.9875C13.791 21.6584 13.6819 21.3238 13.4445 21.0901L10.1344 17.8817C9.85761 17.6132 9.76136 17.2098 9.88786 16.8459C10.0107 16.4829 10.3242 16.218 10.7028 16.1584L15.2586 15.4975C15.6051 15.4617 15.9094 15.2509 16.0653 14.9392L18.0728 10.8234C18.1204 10.7317 18.1819 10.6474 18.2561 10.5759L18.3386 10.5117C18.3817 10.4641 18.4312 10.4247 18.4862 10.3926L18.5861 10.3559L18.7419 10.2917H19.1279C19.4725 10.3275 19.7759 10.5337 19.9345 10.8417L21.9686 14.9392C22.1153 15.239 22.4004 15.4471 22.7294 15.4975L27.2853 16.1584C27.6703 16.2134 27.992 16.4792 28.1194 16.8459C28.2395 17.2135 28.1359 17.6168 27.8536 17.8817L24.4253 21.1267Z" fill="#F3B65B"/>
<defs>
<filter id="filter0_d_132_2844" x="0" y="0" width="38" height="38" filterUnits="userSpaceOnUse" color-interpolation-filters="sRGB">
<feFlood flood-opacity="0" result="BackgroundImageFix"/>
<feColorMatrix in="SourceAlpha" type="matrix" values="0 0 0 0 0 0 0 0 0 0 0 0 0 0 0 0 0 0 127 0" result="hardAlpha"/>
<feOffset/>
<feGaussianBlur stdDeviation="2"/>
<feComposite in2="hardAlpha" operator="out"/>
<feColorMatrix type="matrix" values="0 0 0 0 0 0 0 0 0 0 0 0 0 0 0 0 0 0 0.25 0"/>
<feBlend mode="normal" in2="BackgroundImageFix" result="effect1_dropShadow_132_2844"/>
<feBlend mode="normal" in="SourceGraphic" in2="effect1_dropShadow_132_2844" result="shape"/>
</filter>
</defs>
</svg>
