<svg width="38" height="38" viewBox="0 0 38 38" fill="none" xmlns="http://www.w3.org/2000/svg">
<g filter="url(#filter0_d_132_2857)">
<rect x="4" y="4" width="30" height="30" rx="6" fill="#EE7268"/>
</g>
<path d="M16.25 12.5834C16.0069 12.5834 15.7737 12.68 15.6018 12.8519C15.4299 13.0238 15.3334 13.2569 15.3334 13.5C15.3334 13.7432 15.4299 13.9763 15.6018 14.1482C15.7737 14.3201 16.0069 14.4167 16.25 14.4167C16.4931 14.4167 16.7263 14.3201 16.8982 14.1482C17.0701 13.9763 17.1667 13.7432 17.1667 13.5C17.1667 13.2569 17.0701 13.0238 16.8982 12.8519C16.7263 12.68 16.4931 12.5834 16.25 12.5834ZM13.6559 12.5834C13.8452 12.0466 14.1964 11.5819 14.6611 11.2531C15.1257 10.9243 15.6808 10.7478 16.25 10.7478C16.8192 10.7478 17.3743 10.9243 17.839 11.2531C18.3036 11.5819 18.6548 12.0466 18.8442 12.5834H25.4167C25.6598 12.5834 25.893 12.68 26.0649 12.8519C26.2368 13.0238 26.3334 13.2569 26.3334 13.5C26.3334 13.7432 26.2368 13.9763 26.0649 14.1482C25.893 14.3201 25.6598 14.4167 25.4167 14.4167H18.8442C18.6548 14.9535 18.3036 15.4182 17.839 15.747C17.3743 16.0757 16.8192 16.2523 16.25 16.2523C15.6808 16.2523 15.1257 16.0757 14.6611 15.747C14.1964 15.4182 13.8452 14.9535 13.6559 14.4167H12.5834C12.3402 14.4167 12.1071 14.3201 11.9352 14.1482C11.7633 13.9763 11.6667 13.7432 11.6667 13.5C11.6667 13.2569 11.7633 13.0238 11.9352 12.8519C12.1071 12.68 12.3402 12.5834 12.5834 12.5834H13.6559ZM21.75 18.0834C21.5069 18.0834 21.2737 18.18 21.1018 18.3519C20.9299 18.5238 20.8334 18.7569 20.8334 19C20.8334 19.2432 20.9299 19.4763 21.1018 19.6482C21.2737 19.8201 21.5069 19.9167 21.75 19.9167C21.9931 19.9167 22.2263 19.8201 22.3982 19.6482C22.5701 19.4763 22.6667 19.2432 22.6667 19C22.6667 18.7569 22.5701 18.5238 22.3982 18.3519C22.2263 18.18 21.9931 18.0834 21.75 18.0834ZM19.1559 18.0834C19.3452 17.5466 19.6964 17.0819 20.1611 16.7531C20.6257 16.4243 21.1808 16.2478 21.75 16.2478C22.3192 16.2478 22.8743 16.4243 23.339 16.7531C23.8036 17.0819 24.1548 17.5466 24.3442 18.0834H25.4167C25.6598 18.0834 25.893 18.18 26.0649 18.3519C26.2368 18.5238 26.3334 18.7569 26.3334 19C26.3334 19.2432 26.2368 19.4763 26.0649 19.6482C25.893 19.8201 25.6598 19.9167 25.4167 19.9167H24.3442C24.1548 20.4535 23.8036 20.9182 23.339 21.247C22.8743 21.5757 22.3192 21.7523 21.75 21.7523C21.1808 21.7523 20.6257 21.5757 20.1611 21.247C19.6964 20.9182 19.3452 20.4535 19.1559 19.9167H12.5834C12.3402 19.9167 12.1071 19.8201 11.9352 19.6482C11.7633 19.4763 11.6667 19.2432 11.6667 19C11.6667 18.7569 11.7633 18.5238 11.9352 18.3519C12.1071 18.18 12.3402 18.0834 12.5834 18.0834H19.1559ZM16.25 23.5834C16.0069 23.5834 15.7737 23.68 15.6018 23.8519C15.4299 24.0238 15.3334 24.2569 15.3334 24.5C15.3334 24.7432 15.4299 24.9763 15.6018 25.1482C15.7737 25.3201 16.0069 25.4167 16.25 25.4167C16.4931 25.4167 16.7263 25.3201 16.8982 25.1482C17.0701 24.9763 17.1667 24.7432 17.1667 24.5C17.1667 24.2569 17.0701 24.0238 16.8982 23.8519C16.7263 23.68 16.4931 23.5834 16.25 23.5834ZM13.6559 23.5834C13.8452 23.0466 14.1964 22.5819 14.6611 22.2531C15.1257 21.9243 15.6808 21.7478 16.25 21.7478C16.8192 21.7478 17.3743 21.9243 17.839 22.2531C18.3036 22.5819 18.6548 23.0466 18.8442 23.5834H25.4167C25.6598 23.5834 25.893 23.68 26.0649 23.8519C26.2368 24.0238 26.3334 24.2569 26.3334 24.5C26.3334 24.7432 26.2368 24.9763 26.0649 25.1482C25.893 25.3201 25.6598 25.4167 25.4167 25.4167H18.8442C18.6548 25.9535 18.3036 26.4182 17.839 26.747C17.3743 27.0758 16.8192 27.2523 16.25 27.2523C15.6808 27.2523 15.1257 27.0758 14.6611 26.747C14.1964 26.4182 13.8452 25.9535 13.6559 25.4167H12.5834C12.3402 25.4167 12.1071 25.3201 11.9352 25.1482C11.7633 24.9763 11.6667 24.7432 11.6667 24.5C11.6667 24.2569 11.7633 24.0238 11.9352 23.8519C12.1071 23.68 12.3402 23.5834 12.5834 23.5834H13.6559Z" fill="white"/>
<defs>
<filter id="filter0_d_132_2857" x="0" y="0" width="38" height="38" filterUnits="userSpaceOnUse" color-interpolation-filters="sRGB">
<feFlood flood-opacity="0" result="BackgroundImageFix"/>
<feColorMatrix in="SourceAlpha" type="matrix" values="0 0 0 0 0 0 0 0 0 0 0 0 0 0 0 0 0 0 127 0" result="hardAlpha"/>
<feOffset/>
<feGaussianBlur stdDeviation="2"/>
<feComposite in2="hardAlpha" operator="out"/>
<feColorMatrix type="matrix" values="0 0 0 0 0 0 0 0 0 0 0 0 0 0 0 0 0 0 0.25 0"/>
<feBlend mode="normal" in2="BackgroundImageFix" result="effect1_dropShadow_132_2857"/>
<feBlend mode="normal" in="SourceGraphic" in2="effect1_dropShadow_132_2857" result="shape"/>
</filter>
</defs>
</svg>
