<svg width="25" height="25" viewBox="0 0 25 25" fill="none" xmlns="http://www.w3.org/2000/svg">
<path d="M8.33332 6.24996C7.78079 6.24996 7.25088 6.46945 6.86018 6.86015C6.46948 7.25085 6.24999 7.78076 6.24999 8.33329V16.6666C6.24999 17.2192 6.46948 17.7491 6.86018 18.1398C7.25088 18.5305 7.78079 18.75 8.33332 18.75H16.6667C17.2192 18.75 17.7491 18.5305 18.1398 18.1398C18.5305 17.7491 18.75 17.2192 18.75 16.6666V14.5833C18.75 14.307 18.8597 14.0421 19.0551 13.8467C19.2504 13.6514 19.5154 13.5416 19.7917 13.5416C20.0679 13.5416 20.3329 13.6514 20.5282 13.8467C20.7236 14.0421 20.8333 14.307 20.8333 14.5833V16.6666C20.8333 17.7717 20.3943 18.8315 19.6129 19.6129C18.8315 20.3943 17.7717 20.8333 16.6667 20.8333H8.33332C7.22825 20.8333 6.16845 20.3943 5.38704 19.6129C4.60564 18.8315 4.16666 17.7717 4.16666 16.6666V8.33329C4.16666 7.22822 4.60564 6.16842 5.38704 5.38701C6.16845 4.60561 7.22825 4.16663 8.33332 4.16663H10.4167C10.6929 4.16663 10.9579 4.27637 11.1532 4.47172C11.3486 4.66707 11.4583 4.93203 11.4583 5.20829C11.4583 5.48456 11.3486 5.74951 11.1532 5.94486C10.9579 6.14021 10.6929 6.24996 10.4167 6.24996H8.33332ZM14.5833 6.24996C14.3071 6.24996 14.0421 6.14021 13.8468 5.94486C13.6514 5.74951 13.5417 5.48456 13.5417 5.20829C13.5417 4.93203 13.6514 4.66707 13.8468 4.47172C14.0421 4.27637 14.3071 4.16663 14.5833 4.16663H19.7917C20.0679 4.16663 20.3329 4.27637 20.5282 4.47172C20.7236 4.66707 20.8333 4.93203 20.8333 5.20829V10.4166C20.8333 10.6929 20.7236 10.9578 20.5282 11.1532C20.3329 11.3485 20.0679 11.4583 19.7917 11.4583C19.5154 11.4583 19.2504 11.3485 19.0551 11.1532C18.8597 10.9578 18.75 10.6929 18.75 10.4166V7.72288L15.3208 11.1541C15.224 11.251 15.109 11.3278 14.9825 11.3802C14.8559 11.4326 14.7203 11.4596 14.5833 11.4596C14.4464 11.4596 14.3107 11.4326 14.1842 11.3802C14.0576 11.3278 13.9427 11.251 13.8458 11.1541C13.749 11.0573 13.6721 10.9423 13.6197 10.8158C13.5673 10.6892 13.5403 10.5536 13.5403 10.4166C13.5403 10.2797 13.5673 10.144 13.6197 10.0175C13.6721 9.89095 13.749 9.77598 13.8458 9.67913L17.2771 6.24996H14.5833Z" fill="#EE7268"/>
</svg>
