<svg width="36" height="36" viewBox="0 0 36 36" fill="none" xmlns="http://www.w3.org/2000/svg">
<path fill-rule="evenodd" clip-rule="evenodd" d="M16.6294 0.833374C7.89039 0.833374 0.833344 7.98955 0.833344 16.7832C0.833344 25.577 7.89039 32.7331 16.6294 32.7331C25.3684 32.7331 32.4255 25.577 32.4255 16.7832C32.4255 12.5582 30.7651 8.50306 27.8046 5.51068C24.8435 2.51775 20.824 0.833374 16.6294 0.833374ZM3.83334 16.7832C3.83334 9.61606 9.57743 3.83337 16.6294 3.83337C20.0179 3.83337 23.2709 5.19379 25.6719 7.62062C28.0735 10.048 29.4255 13.3436 29.4255 16.7832C29.4255 23.9504 23.6814 29.7331 16.6294 29.7331C9.57743 29.7331 3.83334 23.9504 3.83334 16.7832ZM30.6889 28.4238L34.9467 31.8607H35.0206C35.882 32.7314 35.882 34.143 35.0206 35.0137C34.1592 35.8844 32.7626 35.8844 31.9012 35.0137L28.3679 30.9642C28.0338 30.6277 27.8461 30.1707 27.8461 29.694C27.8461 29.2173 28.0338 28.7603 28.3679 28.4238C29.0121 27.784 30.0447 27.784 30.6889 28.4238Z" fill="white"/>
</svg>
