<svg width="30" height="30" viewBox="0 0 30 30" fill="none" xmlns="http://www.w3.org/2000/svg">
<path d="M23.3198 10.7932C24.8865 13.6321 24.8865 17.0965 23.3198 19.9254" stroke="#EE7268" stroke-width="1.5" stroke-linecap="round" stroke-linejoin="round"/>
<path fill-rule="evenodd" clip-rule="evenodd" d="M5.83394 15.3591C5.8295 16.8824 5.83394 18.6691 7.09172 19.7368C8.3495 20.8057 9.34839 20.3646 10.9762 20.9002C12.6051 21.4368 14.8862 24.7457 17.4062 23.2513C18.7684 22.2835 19.4106 20.4568 19.4106 15.3591C19.4106 10.2613 18.7973 8.45461 17.4062 7.46683C14.8862 5.9735 12.6051 9.28239 10.9762 9.81795C9.34839 10.3546 8.3495 9.9135 7.09172 10.9813C5.83394 12.0491 5.8295 13.8357 5.83394 15.3591Z" stroke="#EE7268" stroke-width="1.5" stroke-linecap="round" stroke-linejoin="round"/>
</svg>
