<svg width="30" height="30" viewBox="0 0 30 30" fill="none" xmlns="http://www.w3.org/2000/svg">
<path d="M5.625 13.125C4.93464 13.125 4.375 13.6846 4.375 14.375C4.375 19.8202 8.47102 24.3086 13.75 24.9272V27.5C13.75 28.1904 14.3096 28.75 15 28.75C15.6904 28.75 16.25 28.1904 16.25 27.5V24.9272C21.529 24.3086 25.625 19.8202 25.625 14.375C25.625 13.6846 25.0654 13.125 24.375 13.125M20.625 6.875V15C20.625 18.1066 18.1066 20.625 15 20.625C11.8934 20.625 9.375 18.1066 9.375 15V6.875C9.375 3.7684 11.8934 1.25 15 1.25C18.1066 1.25 20.625 3.7684 20.625 6.875Z" stroke="#EE7268" stroke-width="1.5" stroke-linecap="round" stroke-linejoin="round"/>
</svg>
